<svg xmlns="http://www.w3.org/2000/svg" width="442" height="1408" viewBox="0 0 442 1408">
  <defs><marker id="arrow" viewBox="0 0 10 10" refX="9" refY="5" markerWidth="7" markerHeight="7" orient="auto-start-reverse"><path d="M0,0 L10,5 L0,10 z" fill="#333"/></marker></defs>
  <style>text{font-family:'Segoe UI',Arial,sans-serif;font-size:13px;}.lbl{fill:#222;}.elabel{fill:#555;font-size:11px;}</style>
  <polyline fill="none" stroke="#333" stroke-width="1.5" stroke-linejoin="round" points="140.694,64 154.718,104 168.742,144" marker-end="url(#arrow)"/>
  <polyline fill="none" stroke="#333" stroke-width="1.5" stroke-linejoin="round" points="168.742,188 136.258,228 103.774,268" marker-end="url(#arrow)"/>
  <polyline fill="none" stroke="#333" stroke-width="1.5" stroke-linejoin="round" points="103.774,312 97.3473,352 90.9206,392" marker-end="url(#arrow)"/>
  <polyline fill="none" stroke="#333" stroke-width="1.5" stroke-linejoin="round" points="90.9206,436 112.843,476 134.766,516" marker-end="url(#arrow)"/>
  <polyline fill="none" stroke="#333" stroke-width="1.5" stroke-linejoin="round" points="134.766,576 116.856,616 98.9472,656" marker-end="url(#arrow)"/>
  <text class="elabel" x="107.902" y="632" text-anchor="middle">📈 涨了!</text>
  <polyline fill="none" stroke="#333" stroke-width="1.5" stroke-linejoin="round" points="134.766,576 225.856,616 316.947,656" marker-end="url(#arrow)"/>
  <text class="elabel" x="271.402" y="632" text-anchor="middle">📉 跌了!</text>
  <polyline fill="none" stroke="#333" stroke-width="1.5" stroke-linejoin="round" points="98.9472,700 117.277,740 135.606,780" marker-end="url(#arrow)"/>
  <polyline fill="none" stroke="#333" stroke-width="1.5" stroke-linejoin="round" points="316.947,700 226.277,740 135.606,780" marker-end="url(#arrow)"/>
  <polyline fill="none" stroke="#333" stroke-width="1.5" stroke-linejoin="round" points="135.606,824 117.303,864 99,904" marker-end="url(#arrow)"/>
  <polyline fill="none" stroke="#333" stroke-width="1.5" stroke-linejoin="round" points="99,948 114.421,988 129.842,1028" marker-end="url(#arrow)"/>
  <polyline fill="none" stroke="#333" stroke-width="1.5" stroke-linejoin="round" points="129.842,1088 205.63,1128 281.419,1168" marker-end="url(#arrow)"/>
  <text class="elabel" x="243.525" y="1144" text-anchor="middle">😤 装死</text>
  <polyline fill="none" stroke="#333" stroke-width="1.5" stroke-linejoin="round" points="129.842,1088 117.63,1128 105.419,1168" marker-end="url(#arrow)"/>
  <text class="elabel" x="111.525" y="1144" text-anchor="middle">😭 割肉</text>
  <polyline fill="none" stroke="#333" stroke-width="1.5" stroke-linejoin="round" points="105.419,1228 123.857,1268 142.295,1308" marker-end="url(#arrow)"/>
  <polyline fill="none" stroke="#b0714b" stroke-width="1.5" stroke-linejoin="round" points="200.295,1338 155.519,1338 155.519,166 226.742,166" stroke-dasharray="6,4" marker-end="url(#arrow)"/>
  <rect x="61.6944" y="20" width="158" height="44" rx="4" fill="#eef4ff" stroke="#4a72b8"/>
  <text class="lbl" x="140.694" y="47" text-anchor="middle">💰 听说炒股能暴富</text>
  <rect x="110.742" y="144" width="116" height="44" rx="4" fill="#eef4ff" stroke="#4a72b8"/>
  <text class="lbl" x="168.742" y="171" text-anchor="middle">📝 激情开户</text>
  <rect x="31.7741" y="268" width="144" height="44" rx="4" fill="#eef4ff" stroke="#4a72b8"/>
  <text class="lbl" x="103.774" y="295" text-anchor="middle">📚 学习技术分析</text>
  <rect x="25.9206" y="392" width="130" height="44" rx="4" fill="#eef4ff" stroke="#4a72b8"/>
  <text class="lbl" x="90.9206" y="419" text-anchor="middle">🎯 第一次买入</text>
  <polygon points="134.766,516 206.766,546 134.766,576 62.7657,546" fill="#fff7e0" stroke="#c9a227"/>
  <text class="lbl" x="134.766" y="551" text-anchor="middle">📊 涨了还是跌了</text>
  <rect x="26.9472" y="656" width="144" height="44" rx="4" fill="#eef4ff" stroke="#4a72b8"/>
  <text class="lbl" x="98.9472" y="683" text-anchor="middle">😎 我果然是股神</text>
  <rect x="230.947" y="656" width="172" height="44" rx="4" fill="#eef4ff" stroke="#4a72b8"/>
  <text class="lbl" x="316.947" y="683" text-anchor="middle">😰 一定是技术性回调</text>
  <rect x="28.6061" y="780" width="214" height="44" rx="4" fill="#eef4ff" stroke="#4a72b8"/>
  <text class="lbl" x="135.606" y="807" text-anchor="middle">💸 加仓! All in!</text>
  <rect x="20" y="904" width="158" height="44" rx="4" fill="#eef4ff" stroke="#4a72b8"/>
  <text class="lbl" x="99" y="931" text-anchor="middle">📉 继续下跌...</text>
  <polygon points="129.842,1028 180.842,1058 129.842,1088 78.8419,1058" fill="#fff7e0" stroke="#c9a227"/>
  <text class="lbl" x="129.842" y="1063" text-anchor="middle">💭 怎么办</text>
  <rect x="223.419" y="1168" width="116" height="60" rx="4" fill="#eef4ff" stroke="#4a72b8"/>
  <text class="lbl" text-anchor="middle">
    <tspan x="281.419" y="1195">🧘 价值投资</tspan>
    <tspan x="281.419" y="1211">留给孙子解套</tspan>
  </text>
  <rect x="47.4189" y="1168" width="116" height="60" rx="4" fill="#eef4ff" stroke="#4a72b8"/>
  <text class="lbl" text-anchor="middle">
    <tspan x="105.419" y="1195">💔 含泪清仓</tspan>
    <tspan x="105.419" y="1211">再也不玩了</tspan>
  </text>
  <rect x="84.2954" y="1308" width="116" height="60" rx="4" fill="#eef4ff" stroke="#4a72b8"/>
  <text class="lbl" text-anchor="middle">
    <tspan x="142.295" y="1335">📈 第二天:</tspan>
    <tspan x="142.295" y="1351">暴涨 20%</tspan>
  </text>
</svg>
