<svg xmlns="http://www.w3.org/2000/svg" width="618" height="1376" viewBox="0 0 618 1376">
  <defs><marker id="arrow" viewBox="0 0 10 10" refX="9" refY="5" markerWidth="7" markerHeight="7" orient="auto-start-reverse"><path d="M0,0 L10,5 L0,10 z" fill="#333"/></marker></defs>
  <style>text{font-family:'Segoe UI',Arial,sans-serif;font-size:13px;}.lbl{fill:#222;}.elabel{fill:#555;font-size:11px;}</style>
  <polyline fill="none" stroke="#333" stroke-width="1.5" stroke-linejoin="round" points="205.057,64 227.327,104 249.596,144" marker-end="url(#arrow)"/>
  <polyline fill="none" stroke="#333" stroke-width="1.5" stroke-linejoin="round" points="191.596,166 198.232,228 146.867,268" marker-end="url(#arrow)"/>
  <polyline fill="none" stroke="#333" stroke-width="1.5" stroke-linejoin="round" points="146.867,312 131.928,352 116.989,392" marker-end="url(#arrow)"/>
  <polyline fill="none" stroke="#333" stroke-width="1.5" stroke-linejoin="round" points="116.989,436 135.774,476 154.56,516" marker-end="url(#arrow)"/>
  <polyline fill="none" stroke="#333" stroke-width="1.5" stroke-linejoin="round" points="154.56,576 136.323,616 118.087,656" marker-end="url(#arrow)"/>
  <text class="elabel" x="127.205" y="632" text-anchor="middle">📈 涨了!</text>
  <polyline fill="none" stroke="#333" stroke-width="1.5" stroke-linejoin="round" points="226.56,546 245.323,616 250.087,678" marker-end="url(#arrow)"/>
  <text class="elabel" x="247.705" y="643" text-anchor="middle">📉 跌了!</text>
  <polyline fill="none" stroke="#333" stroke-width="1.5" stroke-linejoin="round" points="118.087,700 137.356,740 156.626,780" marker-end="url(#arrow)"/>
  <polyline fill="none" stroke="#333" stroke-width="1.5" stroke-linejoin="round" points="250.087,678 246.356,740 263.626,802" marker-end="url(#arrow)"/>
  <polyline fill="none" stroke="#333" stroke-width="1.5" stroke-linejoin="round" points="156.626,824 144.683,864 132.74,904" marker-end="url(#arrow)"/>
  <polyline fill="none" stroke="#333" stroke-width="1.5" stroke-linejoin="round" points="132.74,948 163.538,988 194.336,1028" marker-end="url(#arrow)"/>
  <polyline fill="none" stroke="#333" stroke-width="1.5" stroke-linejoin="round" points="245.336,1058 322.168,1128 322,1190" marker-end="url(#arrow)"/>
  <text class="elabel" x="322.084" y="1155" text-anchor="middle">😤 装死</text>
  <polyline fill="none" stroke="#333" stroke-width="1.5" stroke-linejoin="round" points="194.336,1088 167.668,1128 141,1168" marker-end="url(#arrow)"/>
  <text class="elabel" x="154.334" y="1144" text-anchor="middle">😭 割肉</text>
  <polyline fill="none" stroke="#333" stroke-width="1.5" stroke-linejoin="round" points="141,1212 160.925,1252 180.849,1292" marker-end="url(#arrow)"/>
  <polyline fill="none" stroke="#b0714b" stroke-width="1.5" stroke-linejoin="round" points="308.849,1314 215.223,1314 215.223,166 307.596,166" stroke-dasharray="6,4" marker-end="url(#arrow)"/>
  <rect x="126.057" y="20" width="158" height="44" rx="4" fill="#eef4ff" stroke="#4a72b8"/>
  <text class="lbl" x="205.057" y="47" text-anchor="middle">💰 听说炒股能暴富</text>
  <rect x="191.596" y="144" width="116" height="44" rx="4" fill="#eef4ff" stroke="#4a72b8"/>
  <text class="lbl" x="249.596" y="171" text-anchor="middle">📝 激情开户</text>
  <rect x="74.8668" y="268" width="144" height="44" rx="4" fill="#eef4ff" stroke="#4a72b8"/>
  <text class="lbl" x="146.867" y="295" text-anchor="middle">📚 学习技术分析</text>
  <rect x="51.9889" y="392" width="130" height="44" rx="4" fill="#eef4ff" stroke="#4a72b8"/>
  <text class="lbl" x="116.989" y="419" text-anchor="middle">🎯 第一次买入</text>
  <polygon points="154.56,516 226.56,546 154.56,576 82.56,546" fill="#fff7e0" stroke="#c9a227"/>
  <text class="lbl" x="154.56" y="551" text-anchor="middle">📊 涨了还是跌了</text>
  <rect x="46.0869" y="656" width="144" height="44" rx="4" fill="#eef4ff" stroke="#4a72b8"/>
  <text class="lbl" x="118.087" y="683" text-anchor="middle">😎 我果然是股神</text>
  <rect x="250.087" y="656" width="172" height="44" rx="4" fill="#eef4ff" stroke="#4a72b8"/>
  <text class="lbl" x="336.087" y="683" text-anchor="middle">😰 一定是技术性回调</text>
  <rect x="49.6256" y="780" width="214" height="44" rx="4" fill="#eef4ff" stroke="#4a72b8"/>
  <text class="lbl" x="156.626" y="807" text-anchor="middle">💸 加仓! All in!</text>
  <rect x="53.7396" y="904" width="158" height="44" rx="4" fill="#eef4ff" stroke="#4a72b8"/>
  <text class="lbl" x="132.74" y="931" text-anchor="middle">📉 继续下跌...</text>
  <polygon points="194.336,1028 245.336,1058 194.336,1088 143.336,1058" fill="#fff7e0" stroke="#c9a227"/>
  <text class="lbl" x="194.336" y="1063" text-anchor="middle">💭 怎么办</text>
  <rect x="322" y="1168" width="256" height="44" rx="4" fill="#eef4ff" stroke="#4a72b8"/>
  <text class="lbl" x="450" y="1195" text-anchor="middle">🧘 价值投资&lt;br&gt;留给孙子解套</text>
  <rect x="20" y="1168" width="242" height="44" rx="4" fill="#eef4ff" stroke="#4a72b8"/>
  <text class="lbl" x="141" y="1195" text-anchor="middle">💔 含泪清仓&lt;br&gt;再也不玩了</text>
  <rect x="52.8492" y="1292" width="256" height="44" rx="4" fill="#eef4ff" stroke="#4a72b8"/>
  <text class="lbl" x="180.849" y="1319" text-anchor="middle">📈 第二天:&lt;br&gt;暴涨 20%</text>
</svg>
