<svg xmlns="http://www.w3.org/2000/svg" width="724" height="1376" viewBox="0 0 724 1376">
  <defs><marker id="arrow" viewBox="0 0 10 10" refX="9" refY="5" markerWidth="7" markerHeight="7" orient="auto-start-reverse"><path d="M0,0 L10,5 L0,10 z" fill="#333"/></marker></defs>
  <style>text{font-family:'Segoe UI',Arial,sans-serif;font-size:13px;}.lbl{fill:#222;}.elabel{fill:#555;font-size:11px;}</style>
  <polyline fill="none" stroke="#333" stroke-width="1.5" stroke-linejoin="round" points="204.471,64 207.718,104 210.965,144" marker-end="url(#arrow)"/>
  <polyline fill="none" stroke="#333" stroke-width="1.5" stroke-linejoin="round" points="210.965,188 225.835,228 240.706,268" marker-end="url(#arrow)"/>
  <polyline fill="none" stroke="#333" stroke-width="1.5" stroke-linejoin="round" points="240.706,312 280.742,352 320.779,392" marker-end="url(#arrow)"/>
  <polyline fill="none" stroke="#333" stroke-width="1.5" stroke-linejoin="round" points="320.779,452 298.088,492 275.398,532" marker-end="url(#arrow)"/>
  <text class="elabel" x="286.743" y="508" text-anchor="middle">被虐</text>
  <polyline fill="none" stroke="#333" stroke-width="1.5" stroke-linejoin="round" points="378.779,422 445.588,492 456.398,554" marker-end="url(#arrow)"/>
  <text class="elabel" x="450.993" y="519" text-anchor="middle">还行</text>
  <polyline fill="none" stroke="#333" stroke-width="1.5" stroke-linejoin="round" points="275.398,576 297.979,616 320.561,656" marker-end="url(#arrow)"/>
  <polyline fill="none" stroke="#333" stroke-width="1.5" stroke-linejoin="round" points="456.398,554 445.479,616 399.561,678" marker-end="url(#arrow)"/>
  <polyline fill="none" stroke="#333" stroke-width="1.5" stroke-linejoin="round" points="320.561,700 281.024,740 241.487,780" marker-end="url(#arrow)"/>
  <polyline fill="none" stroke="#333" stroke-width="1.5" stroke-linejoin="round" points="241.487,824 230.882,864 220.277,904" marker-end="url(#arrow)"/>
  <polyline fill="none" stroke="#333" stroke-width="1.5" stroke-linejoin="round" points="220.277,948 231.393,988 242.509,1028" marker-end="url(#arrow)"/>
  <polyline fill="none" stroke="#333" stroke-width="1.5" stroke-linejoin="round" points="242.509,1088 202.248,1128 161.987,1168" marker-end="url(#arrow)"/>
  <text class="elabel" x="182.118" y="1144" text-anchor="middle">是</text>
  <polyline fill="none" stroke="#333" stroke-width="1.5" stroke-linejoin="round" points="307.509,1058 328.748,1128 414.987,1168" marker-end="url(#arrow)"/>
  <text class="elabel" x="371.868" y="1144" text-anchor="middle">否</text>
  <polyline fill="none" stroke="#333" stroke-width="1.5" stroke-linejoin="round" points="161.987,1212 147.993,1252 134,1292" marker-end="url(#arrow)"/>
  <polyline fill="none" stroke="#333" stroke-width="1.5" stroke-linejoin="round" points="414.987,1212 418.493,1252 422,1292" marker-end="url(#arrow)"/>
  <rect x="146.471" y="20" width="116" height="44" rx="4" fill="#eef4ff" stroke="#4a72b8"/>
  <text class="lbl" x="204.471" y="47" text-anchor="middle">🎮 新手玩家</text>
  <rect x="82.9652" y="144" width="256" height="44" rx="4" fill="#eef4ff" stroke="#4a72b8"/>
  <text class="lbl" x="210.965" y="171" text-anchor="middle">📖 教程关:&lt;br&gt;WASD移动</text>
  <rect x="168.706" y="268" width="144" height="44" rx="4" fill="#eef4ff" stroke="#4a72b8"/>
  <text class="lbl" x="240.706" y="295" text-anchor="middle">⚔️ 第一次实战</text>
  <polygon points="320.779,392 378.779,422 320.779,452 262.779,422" fill="#fff7e0" stroke="#c9a227"/>
  <text class="lbl" x="320.779" y="427" text-anchor="middle">💀 结果如何</text>
  <rect x="154.398" y="532" width="242" height="44" rx="4" fill="#eef4ff" stroke="#4a72b8"/>
  <text class="lbl" x="275.398" y="559" text-anchor="middle">😭 0杀20死&lt;br&gt;被队友骂</text>
  <rect x="456.398" y="532" width="228" height="44" rx="4" fill="#eef4ff" stroke="#4a72b8"/>
  <text class="lbl" x="570.398" y="559" text-anchor="middle">😤 偶尔杀人&lt;br&gt;偶尔被杀</text>
  <rect x="241.561" y="656" width="158" height="44" rx="4" fill="#eef4ff" stroke="#4a72b8"/>
  <text class="lbl" x="320.561" y="683" text-anchor="middle">📚 看攻略/练枪法</text>
  <rect x="169.487" y="780" width="144" height="44" rx="4" fill="#eef4ff" stroke="#4a72b8"/>
  <text class="lbl" x="241.487" y="807" text-anchor="middle">📈 实力稳步提升</text>
  <rect x="141.277" y="904" width="158" height="44" rx="4" fill="#eef4ff" stroke="#4a72b8"/>
  <text class="lbl" x="220.277" y="931" text-anchor="middle">🏆 第一次MVP!</text>
  <polygon points="242.509,1028 307.509,1058 242.509,1088 177.509,1058" fill="#fff7e0" stroke="#c9a227"/>
  <text class="lbl" x="242.509" y="1063" text-anchor="middle">🔥 继续冲分?</text>
  <rect x="96.9869" y="1168" width="130" height="44" rx="4" fill="#eef4ff" stroke="#4a72b8"/>
  <text class="lbl" x="161.987" y="1195" text-anchor="middle">🎯 冲上王者!</text>
  <rect x="286.987" y="1168" width="256" height="44" rx="4" fill="#eef4ff" stroke="#4a72b8"/>
  <text class="lbl" x="414.987" y="1195" text-anchor="middle">😎 在低分段&lt;br&gt;享受虐菜快感</text>
  <rect x="20" y="1292" width="228" height="44" rx="4" fill="#eef4ff" stroke="#4a72b8"/>
  <text class="lbl" x="134" y="1319" text-anchor="middle">👑 职业选手&lt;br&gt;年薪千万</text>
  <rect x="308" y="1292" width="228" height="44" rx="4" fill="#eef4ff" stroke="#4a72b8"/>
  <text class="lbl" x="422" y="1319" text-anchor="middle">😊 快乐游戏&lt;br&gt;才是真谛</text>
</svg>
