<svg xmlns="http://www.w3.org/2000/svg" width="322" height="492" viewBox="0 0 322 492">
  <defs><marker id="arrow" viewBox="0 0 10 10" refX="9" refY="5" markerWidth="7" markerHeight="7" orient="auto-start-reverse"><path d="M0,0 L10,5 L0,10 z" fill="#333"/></marker></defs>
  <style>text{font-family:'Segoe UI',Arial,sans-serif;font-size:13px;}.lbl{fill:#222;}.elabel{fill:#555;font-size:11px;}</style>
  <line x1="151" y1="64" x2="151" y2="144" stroke="#333" stroke-width="1.5" marker-end="url(#arrow)"/>
  <line x1="132.818" y1="204" x2="84.3333" y2="284" stroke="#333" stroke-width="1.5" marker-end="url(#arrow)"/>
  <text class="elabel" x="108.576" y="240" text-anchor="middle">是</text>
  <line x1="169.409" y1="204" x2="218.5" y2="284" stroke="#333" stroke-width="1.5" marker-end="url(#arrow)"/>
  <text class="elabel" x="193.955" y="240" text-anchor="middle">否</text>
  <line x1="85.1935" y1="328" x2="136.806" y2="408" stroke="#333" stroke-width="1.5" marker-end="url(#arrow)"/>
  <rect x="101" y="20" width="100" height="44" rx="4" fill="#eef4ff" stroke="#4a72b8"/>
  <text class="lbl" x="151" y="47" text-anchor="middle">需求输入</text>
  <polygon points="151,144 209,174 151,204 93,174" fill="#fff7e0" stroke="#c9a227"/>
  <text class="lbl" x="151" y="179" text-anchor="middle">是否可解析?</text>
  <rect x="20" y="284" width="102" height="44" rx="4" fill="#eef4ff" stroke="#4a72b8"/>
  <text class="lbl" x="71" y="311" text-anchor="middle">统一图模型</text>
  <rect x="182" y="284" width="100" height="44" rx="4" fill="#eef4ff" stroke="#4a72b8"/>
  <text class="lbl" x="232" y="311" text-anchor="middle">报错</text>
  <rect x="100" y="408" width="102" height="44" rx="4" fill="#eef4ff" stroke="#4a72b8"/>
  <text class="lbl" x="151" y="435" text-anchor="middle">多格式导出</text>
</svg>
