<svg xmlns="http://www.w3.org/2000/svg" width="852" height="420" viewBox="0 0 852 420">
  <defs><marker id="arrow" viewBox="0 0 10 10" refX="9" refY="5" markerWidth="7" markerHeight="7" orient="auto-start-reverse"><path d="M0,0 L10,5 L0,10 z" fill="#333"/></marker></defs>
  <style>text{font-family:'Segoe UI',Arial,sans-serif;font-size:13px;}.lbl{fill:#222;}.elabel{fill:#555;font-size:11px;}</style>
  <line x1="119.946" y1="100" x2="356" y2="203.976" stroke="#333" stroke-width="1.5" marker-end="url(#arrow)"/>
  <line x1="387.591" y1="256" x2="338.5" y2="336" stroke="#333" stroke-width="1.5" marker-end="url(#arrow)"/>
  <text class="elabel" x="363.045" y="292" text-anchor="middle">是</text>
  <line x1="424.182" y1="256" x2="472.667" y2="336" stroke="#333" stroke-width="1.5" marker-end="url(#arrow)"/>
  <text class="elabel" x="448.424" y="292" text-anchor="middle">否</text>
  <line x1="465.886" y1="336" x2="250.114" y2="100" stroke="#333" stroke-width="1.5" marker-end="url(#arrow)"/>
  <line x1="280" y1="80.4845" x2="340" y2="83.4658" stroke="#333" stroke-width="1.5" marker-end="url(#arrow)"/>
  <line x1="383.721" y1="116" x2="330.338" y2="336" stroke="#333" stroke-width="1.5" marker-end="url(#arrow)"/>
  <text class="elabel" x="357.029" y="222" text-anchor="middle">是</text>
  <line x1="401.478" y1="116" x2="478.316" y2="336" stroke="#333" stroke-width="1.5" stroke-dasharray="6,4" marker-end="url(#arrow)"/>
  <text class="elabel" x="439.897" y="222" text-anchor="middle">否</text>
  <line x1="602" y1="78" x2="662" y2="78" stroke="#333" stroke-width="1.5" marker-end="url(#arrow)"/>
  <line x1="280" y1="78" x2="502" y2="78" stroke="#333" stroke-width="1.5" marker-end="url(#arrow)"/>
  <rect x="20" y="56" width="100" height="44" rx="4" fill="#eef4ff" stroke="#4a72b8"/>
  <text class="lbl" x="70" y="83" text-anchor="middle">用户请求</text>
  <polygon points="406,196 456,226 406,256 356,226" fill="#fff7e0" stroke="#c9a227"/>
  <text class="lbl" x="406" y="231" text-anchor="middle">已登录?</text>
  <rect x="275" y="336" width="100" height="44" rx="4" fill="#eef4ff" stroke="#4a72b8"/>
  <text class="lbl" x="325" y="363" text-anchor="middle">进入首页</text>
  <rect x="435" y="336" width="102" height="44" rx="4" fill="#eef4ff" stroke="#4a72b8"/>
  <text class="lbl" x="486" y="363" text-anchor="middle">跳转登录页</text>
  <rect x="180" y="56" width="100" height="44" rx="4" fill="#eef4ff" stroke="#4a72b8"/>
  <text class="lbl" x="230" y="83" text-anchor="middle">提交凭据</text>
  <polygon points="391,56 442,86 391,116 340,86" fill="#fff7e0" stroke="#c9a227"/>
  <text class="lbl" x="391" y="91" text-anchor="middle">验证通过?</text>
  <rect x="482" y="20" width="330" height="100" fill="none" stroke="#999" stroke-dasharray="5,4" rx="6"/>
  <text class="lbl" x="490" y="38" fill="#777">后端服务</text>
  <rect x="502" y="56" width="100" height="44" rx="4" fill="#eef4ff" stroke="#4a72b8"/>
  <text class="lbl" x="552" y="83" text-anchor="middle">认证服务</text>
  <rect x="662" y="56" width="130" height="44" rx="4" fill="#eef4ff" stroke="#4a72b8"/>
  <text class="lbl" x="727" y="83" text-anchor="middle">(用户数据库)</text>
</svg>
