<svg xmlns="http://www.w3.org/2000/svg" width="320" height="288" viewBox="0 0 320 288">
  <defs><marker id="arrow" viewBox="0 0 10 10" refX="9" refY="5" markerWidth="7" markerHeight="7" orient="auto-start-reverse"><path d="M0,0 L10,5 L0,10 z" fill="#333"/></marker></defs>
  <style>text{font-family:'Segoe UI',Arial,sans-serif;font-size:13px;}.lbl{fill:#222;}.elabel{fill:#555;font-size:11px;}</style>
  <line x1="125.065" y1="116" x2="83.5065" y2="196" stroke="#333" stroke-width="1.5" marker-end="url(#arrow)"/>
  <text class="elabel" x="104.286" y="152" text-anchor="middle">inheritance</text>
  <line x1="174.935" y1="116" x2="216.494" y2="196" stroke="#333" stroke-width="1.5" marker-end="url(#arrow)"/>
  <text class="elabel" x="195.714" y="152" text-anchor="middle">inheritance</text>
  <rect x="100" y="20" width="100" height="96" rx="4" fill="#eef4ff" stroke="#4a72b8"/>
  <text class="lbl" x="150" y="40" text-anchor="middle" font-weight="bold">Animal</text>
  <line x1="100" y1="48" x2="200" y2="48" stroke="#4a72b8"/>
  <text class="lbl" x="110" y="66">+int age</text>
  <text class="lbl" x="110" y="88">+String name</text>
  <text class="lbl" x="110" y="110">+eat()</text>
  <rect x="20" y="196" width="100" height="52" rx="4" fill="#eef4ff" stroke="#4a72b8"/>
  <text class="lbl" x="70" y="216" text-anchor="middle" font-weight="bold">Dog</text>
  <line x1="20" y1="224" x2="120" y2="224" stroke="#4a72b8"/>
  <text class="lbl" x="30" y="242">+bark()</text>
  <rect x="180" y="196" width="100" height="52" rx="4" fill="#eef4ff" stroke="#4a72b8"/>
  <text class="lbl" x="230" y="216" text-anchor="middle" font-weight="bold">Cat</text>
  <line x1="180" y1="224" x2="280" y2="224" stroke="#4a72b8"/>
  <text class="lbl" x="190" y="242">+meow()</text>
</svg>
