<svg xmlns="http://www.w3.org/2000/svg" width="630" height="988" viewBox="0 0 630 988">
  <defs><marker id="arrow" viewBox="0 0 10 10" refX="9" refY="5" markerWidth="7" markerHeight="7" orient="auto-start-reverse"><path d="M0,0 L10,5 L0,10 z" fill="#333"/></marker></defs>
  <style>text{font-family:'Segoe UI',Arial,sans-serif;font-size:13px;}.lbl{fill:#222;}.elabel{fill:#555;font-size:11px;}</style>
  <polyline fill="none" stroke="#333" stroke-width="1.5" stroke-linejoin="round" points="258.898,64 259.575,104 260.252,144" marker-end="url(#arrow)"/>
  <polyline fill="none" stroke="#333" stroke-width="1.5" stroke-linejoin="round" points="260.252,188 263.717,228 267.183,268" marker-end="url(#arrow)"/>
  <polyline fill="none" stroke="#333" stroke-width="1.5" stroke-linejoin="round" points="267.183,312 277.406,352 287.629,392" marker-end="url(#arrow)"/>
  <polyline fill="none" stroke="#333" stroke-width="1.5" stroke-linejoin="round" points="287.629,452 254.171,492 220.713,532" marker-end="url(#arrow)"/>
  <text class="elabel" x="237.442" y="508" text-anchor="middle">😍 可爱暴击</text>
  <polyline fill="none" stroke="#333" stroke-width="1.5" stroke-linejoin="round" points="345.629,422 349.171,492 338.713,554" marker-end="url(#arrow)"/>
  <text class="elabel" x="343.942" y="519" text-anchor="middle">😐 平平无奇</text>
  <polyline fill="none" stroke="#333" stroke-width="1.5" stroke-linejoin="round" points="220.713,576 200.163,616 179.612,656" marker-end="url(#arrow)"/>
  <polyline fill="none" stroke="#333" stroke-width="1.5" stroke-linejoin="round" points="179.612,700 169.919,740 160.226,780" marker-end="url(#arrow)"/>
  <polyline fill="none" stroke="#333" stroke-width="1.5" stroke-linejoin="round" points="160.226,824 157.613,864 155,904" marker-end="url(#arrow)"/>
  <polyline fill="none" stroke="#333" stroke-width="1.5" stroke-linejoin="round" points="410.713,576 414.555,616 418.397,656" marker-end="url(#arrow)"/>
  <polyline fill="none" stroke="#333" stroke-width="1.5" stroke-linejoin="round" points="418.397,700 433.312,740 448.226,780" marker-end="url(#arrow)"/>
  <rect x="193.898" y="20" width="130" height="44" rx="4" fill="#eef4ff" stroke="#4a72b8"/>
  <text class="lbl" x="258.898" y="47" text-anchor="middle">🐱 哈吉米出生</text>
  <rect x="188.252" y="144" width="144" height="44" rx="4" fill="#eef4ff" stroke="#4a72b8"/>
  <text class="lbl" x="260.252" y="171" text-anchor="middle">🏠 被好心人收养</text>
  <rect x="174.183" y="268" width="186" height="44" rx="4" fill="#eef4ff" stroke="#4a72b8"/>
  <text class="lbl" x="267.183" y="295" text-anchor="middle">📸 主人开始拍照发网上</text>
  <polygon points="287.629,392 345.629,422 287.629,452 229.629,422" fill="#fff7e0" stroke="#c9a227"/>
  <text class="lbl" x="287.629" y="427" text-anchor="middle">🌐 网友反应</text>
  <rect x="162.713" y="532" width="116" height="44" rx="4" fill="#eef4ff" stroke="#4a72b8"/>
  <text class="lbl" x="220.713" y="559" text-anchor="middle">🔥 一夜爆红</text>
  <rect x="338.713" y="532" width="144" height="44" rx="4" fill="#eef4ff" stroke="#4a72b8"/>
  <text class="lbl" x="410.713" y="559" text-anchor="middle">📉 继续当普通猫</text>
  <rect x="100.612" y="656" width="158" height="44" rx="4" fill="#eef4ff" stroke="#4a72b8"/>
  <text class="lbl" x="179.612" y="683" text-anchor="middle">🛍️ 接代言/带货</text>
  <rect x="74.226" y="780" width="172" height="44" rx="4" fill="#eef4ff" stroke="#4a72b8"/>
  <text class="lbl" x="160.226" y="807" text-anchor="middle">💼 成立哈吉米工作室</text>
  <rect x="20" y="904" width="270" height="44" rx="4" fill="#eef4ff" stroke="#4a72b8"/>
  <text class="lbl" x="155" y="931" text-anchor="middle">🏆 猫生巅峰:&lt;br&gt;年入千万喵粮</text>
  <rect x="339.397" y="656" width="158" height="44" rx="4" fill="#eef4ff" stroke="#4a72b8"/>
  <text class="lbl" x="418.397" y="683" text-anchor="middle">😴 每天睡18小时</text>
  <rect x="306.226" y="780" width="284" height="44" rx="4" fill="#eef4ff" stroke="#4a72b8"/>
  <text class="lbl" x="448.226" y="807" text-anchor="middle">😸 其实这才是&lt;br&gt;真正的猫生赢家</text>
</svg>
