<svg xmlns="http://www.w3.org/2000/svg" width="454" height="1020" viewBox="0 0 454 1020">
  <defs><marker id="arrow" viewBox="0 0 10 10" refX="9" refY="5" markerWidth="7" markerHeight="7" orient="auto-start-reverse"><path d="M0,0 L10,5 L0,10 z" fill="#333"/></marker></defs>
  <style>text{font-family:'Segoe UI',Arial,sans-serif;font-size:13px;}.lbl{fill:#222;}.elabel{fill:#555;font-size:11px;}</style>
  <polyline fill="none" stroke="#333" stroke-width="1.5" stroke-linejoin="round" points="178.104,64 178.906,104 179.707,144" marker-end="url(#arrow)"/>
  <polyline fill="none" stroke="#333" stroke-width="1.5" stroke-linejoin="round" points="179.707,188 183.88,228 188.052,268" marker-end="url(#arrow)"/>
  <polyline fill="none" stroke="#333" stroke-width="1.5" stroke-linejoin="round" points="188.052,312 200.409,352 212.767,392" marker-end="url(#arrow)"/>
  <polyline fill="none" stroke="#333" stroke-width="1.5" stroke-linejoin="round" points="212.767,452 181.887,492 151.007,532" marker-end="url(#arrow)"/>
  <text class="elabel" x="166.447" y="508" text-anchor="middle">😍 可爱暴击</text>
  <polyline fill="none" stroke="#333" stroke-width="1.5" stroke-linejoin="round" points="212.767,452 276.887,492 341.007,532" marker-end="url(#arrow)"/>
  <text class="elabel" x="308.947" y="508" text-anchor="middle">😐 平平无奇</text>
  <polyline fill="none" stroke="#333" stroke-width="1.5" stroke-linejoin="round" points="151.007,576 134.478,616 117.95,656" marker-end="url(#arrow)"/>
  <polyline fill="none" stroke="#333" stroke-width="1.5" stroke-linejoin="round" points="117.95,700 111.975,740 106,780" marker-end="url(#arrow)"/>
  <polyline fill="none" stroke="#333" stroke-width="1.5" stroke-linejoin="round" points="106,824 104.91,872 103.82,920" marker-end="url(#arrow)"/>
  <polyline fill="none" stroke="#333" stroke-width="1.5" stroke-linejoin="round" points="341.007,576 338.478,616 335.95,656" marker-end="url(#arrow)"/>
  <polyline fill="none" stroke="#333" stroke-width="1.5" stroke-linejoin="round" points="335.95,700 330.296,740 324.642,780" marker-end="url(#arrow)"/>
  <rect x="113.104" y="20" width="130" height="44" rx="4" fill="#eef4ff" stroke="#4a72b8"/>
  <text class="lbl" x="178.104" y="47" text-anchor="middle">🐱 哈吉米出生</text>
  <rect x="107.707" y="144" width="144" height="44" rx="4" fill="#eef4ff" stroke="#4a72b8"/>
  <text class="lbl" x="179.707" y="171" text-anchor="middle">🏠 被好心人收养</text>
  <rect x="95.0519" y="268" width="186" height="44" rx="4" fill="#eef4ff" stroke="#4a72b8"/>
  <text class="lbl" x="188.052" y="295" text-anchor="middle">📸 主人开始拍照发网上</text>
  <polygon points="212.767,392 270.767,422 212.767,452 154.767,422" fill="#fff7e0" stroke="#c9a227"/>
  <text class="lbl" x="212.767" y="427" text-anchor="middle">🌐 网友反应</text>
  <rect x="93.007" y="532" width="116" height="44" rx="4" fill="#eef4ff" stroke="#4a72b8"/>
  <text class="lbl" x="151.007" y="559" text-anchor="middle">🔥 一夜爆红</text>
  <rect x="269.007" y="532" width="144" height="44" rx="4" fill="#eef4ff" stroke="#4a72b8"/>
  <text class="lbl" x="341.007" y="559" text-anchor="middle">📉 继续当普通猫</text>
  <rect x="38.9495" y="656" width="158" height="44" rx="4" fill="#eef4ff" stroke="#4a72b8"/>
  <text class="lbl" x="117.95" y="683" text-anchor="middle">🛍️ 接代言/带货</text>
  <rect x="20" y="780" width="172" height="44" rx="4" fill="#eef4ff" stroke="#4a72b8"/>
  <text class="lbl" x="106" y="807" text-anchor="middle">💼 成立哈吉米工作室</text>
  <rect x="38.8201" y="920" width="130" height="60" rx="4" fill="#eef4ff" stroke="#4a72b8"/>
  <text class="lbl" text-anchor="middle">
    <tspan x="103.82" y="947">🏆 猫生巅峰:</tspan>
    <tspan x="103.82" y="963">年入千万喵粮</tspan>
  </text>
  <rect x="256.95" y="656" width="158" height="44" rx="4" fill="#eef4ff" stroke="#4a72b8"/>
  <text class="lbl" x="335.95" y="683" text-anchor="middle">😴 每天睡18小时</text>
  <rect x="259.642" y="780" width="130" height="60" rx="4" fill="#eef4ff" stroke="#4a72b8"/>
  <text class="lbl" text-anchor="middle">
    <tspan x="324.642" y="807">😸 其实这才是</tspan>
    <tspan x="324.642" y="823">真正的猫生赢家</tspan>
  </text>
</svg>
