<svg xmlns="http://www.w3.org/2000/svg" width="304" height="356" viewBox="0 0 304 356" font-family="Cascadia Code, Consolas, SF Mono, Menlo, monospace">
<rect width="304" height="356" rx="10" fill="#1e2430"/>
<path d="M0 10a10 10 0 0 1 10-10h284a10 10 0 0 1 10 10v28H0z" fill="#161b24"/>
<circle cx="20" cy="19.0" r="6" fill="#ff5f57"/>
<circle cx="38" cy="19.0" r="6" fill="#febc2e"/>
<circle cx="56" cy="19.0" r="6" fill="#28c840"/>
<text x="152.0" y="23.5" fill="#7d8899" font-size="12.5" text-anchor="middle">游标遍历</text>
<text x="18" y="68.0" font-size="14" xml:space="preserve">
<tspan x="18.0" fill="#5fd7a7">$ </tspan>
<tspan x="34.8" fill="#e8eef6">graphmcp cursor open gthy53syt</tspan>
</text>
<text x="18" y="90.0" font-size="14" xml:space="preserve">
<tspan x="18.0" fill="#c9d4e3">{</tspan>
</text>
<text x="18" y="112.0" font-size="14" xml:space="preserve">
<tspan x="18.0" fill="#6fc3df">  "cursor":</tspan>
<tspan x="110.4" fill="#e0a978"> "curthy54a88",</tspan>
</text>
<text x="18" y="134.0" font-size="14" xml:space="preserve">
<tspan x="18.0" fill="#6fc3df">  "graphId":</tspan>
<tspan x="118.8" fill="#e0a978"> "gthy53syt",</tspan>
</text>
<text x="18" y="156.0" font-size="14" xml:space="preserve">
<tspan x="18.0" fill="#6fc3df">  "target":</tspan>
<tspan x="110.4" fill="#e0a978"> "nodes",</tspan>
</text>
<text x="18" y="178.0" font-size="14" xml:space="preserve">
<tspan x="18.0" fill="#6fc3df">  "index":</tspan>
<tspan x="102.0" fill="#c792ea"> 0,</tspan>
</text>
<text x="18" y="200.0" font-size="14" xml:space="preserve">
<tspan x="18.0" fill="#6fc3df">  "count":</tspan>
<tspan x="102.0" fill="#c792ea"> 6,</tspan>
</text>
<text x="18" y="222.0" font-size="14" xml:space="preserve">
<tspan x="18.0" fill="#6fc3df">  "item":</tspan>
<tspan x="93.6" fill="#c792ea"> {</tspan>
</text>
<text x="18" y="244.0" font-size="14" xml:space="preserve">
<tspan x="18.0" fill="#6fc3df">    "id":</tspan>
<tspan x="93.6" fill="#e0a978"> "A",</tspan>
</text>
<text x="18" y="266.0" font-size="14" xml:space="preserve">
<tspan x="18.0" fill="#6fc3df">    "label":</tspan>
<tspan x="118.8" fill="#e0a978"> "用户下单",</tspan>
</text>
<text x="18" y="288.0" font-size="14" xml:space="preserve">
<tspan x="18.0" fill="#6fc3df">    "shape":</tspan>
<tspan x="118.8" fill="#e0a978"> "rect"</tspan>
</text>
<text x="18" y="310.0" font-size="14" xml:space="preserve">
<tspan x="18.0" fill="#c9d4e3">  }</tspan>
</text>
<text x="18" y="332.0" font-size="14" xml:space="preserve">
<tspan x="18.0" fill="#c9d4e3">}</tspan>
</text>
</svg>