<svg xmlns="http://www.w3.org/2000/svg" width="657" height="312" viewBox="0 0 657 312" font-family="Cascadia Code, Consolas, SF Mono, Menlo, monospace">
<rect width="657" height="312" rx="10" fill="#1e2430"/>
<path d="M0 10a10 10 0 0 1 10-10h637a10 10 0 0 1 10 10v28H0z" fill="#161b24"/>
<circle cx="20" cy="19.0" r="6" fill="#ff5f57"/>
<circle cx="38" cy="19.0" r="6" fill="#febc2e"/>
<circle cx="56" cy="19.0" r="6" fill="#28c840"/>
<text x="328.5" y="23.5" fill="#7d8899" font-size="12.5" text-anchor="middle">Draft 模式图编辑</text>
<text x="18" y="68.0" font-size="14" xml:space="preserve">
<tspan x="18.0" fill="#5fd7a7">$ </tspan>
<tspan x="34.8" fill="#e8eef6">graphmcp graph update gthy53syt --node A --set label="用户下单"</tspan>
</text>
<text x="18" y="90.0" font-size="14" xml:space="preserve">
<tspan x="18.0" fill="#c9d4e3">updated node A</tspan>
</text>
<text x="18" y="112.0" font-size="14" xml:space="preserve">
<tspan x="18.0" fill="#c9d4e3">(draft saved: 1 total operation(s))</tspan>
</text>
<text x="18" y="134.0" font-size="14" xml:space="preserve">
<tspan x="18.0" fill="#5fd7a7">$ </tspan>
<tspan x="34.8" fill="#e8eef6">graphmcp graph insert gthy53syt --node --type diamond --label "风控校验"</tspan>
</text>
<text x="18" y="156.0" font-size="14" xml:space="preserve">
<tspan x="18.0" fill="#c9d4e3">inserted node n1: diamond "风控校验"</tspan>
</text>
<text x="18" y="178.0" font-size="14" xml:space="preserve">
<tspan x="18.0" fill="#5fd7a7">$ </tspan>
<tspan x="34.8" fill="#e8eef6">graphmcp version status gthy53syt</tspan>
</text>
<text x="18" y="200.0" font-size="14" xml:space="preserve">
<tspan x="18.0" fill="#c9d4e3">Graph: 订单流程 (gthy53syt)</tspan>
</text>
<text x="18" y="222.0" font-size="14" xml:space="preserve">
<tspan x="18.0" fill="#c9d4e3">  HEAD:     v1</tspan>
</text>
<text x="18" y="244.0" font-size="14" xml:space="preserve">
<tspan x="18.0" fill="#c9d4e3">  Draft:    2 operation(s)</tspan>
</text>
<text x="18" y="266.0" font-size="14" xml:space="preserve">
<tspan x="18.0" fill="#c9d4e3">  Staged:   0 operation(s)</tspan>
</text>
<text x="18" y="288.0" font-size="14" xml:space="preserve">
<tspan x="18.0" fill="#c9d4e3">  Status:   ⚠ uncommitted changes</tspan>
</text>
</svg>