<svg xmlns="http://www.w3.org/2000/svg" width="640" height="356" viewBox="0 0 640 356" font-family="Cascadia Code, Consolas, SF Mono, Menlo, monospace">
<rect width="640" height="356" rx="10" fill="#1e2430"/>
<path d="M0 10a10 10 0 0 1 10-10h620a10 10 0 0 1 10 10v28H0z" fill="#161b24"/>
<circle cx="20" cy="19.0" r="6" fill="#ff5f57"/>
<circle cx="38" cy="19.0" r="6" fill="#febc2e"/>
<circle cx="56" cy="19.0" r="6" fill="#28c840"/>
<text x="320.0" y="23.5" fill="#7d8899" font-size="12.5" text-anchor="middle">一图多格式导出</text>
<text x="18" y="68.0" font-size="14" xml:space="preserve">
<tspan x="18.0" fill="#5fd7a7">$ </tspan>
<tspan x="34.8" fill="#e8eef6">graphmcp export to-drawio --id gthy53syt -o out/flow.drawio</tspan>
</text>
<text x="18" y="90.0" font-size="14" xml:space="preserve">
<tspan x="18.0" fill="#c9d4e3">drawio written: out/flow.drawio</tspan>
</text>
<text x="18" y="112.0" font-size="14" xml:space="preserve">
<tspan x="18.0" fill="#5fd7a7">$ </tspan>
<tspan x="34.8" fill="#e8eef6">graphmcp export to-mermaid --id gthy53syt -o out/flow.mermaid</tspan>
</text>
<text x="18" y="134.0" font-size="14" xml:space="preserve">
<tspan x="18.0" fill="#c9d4e3">mermaid written: out/flow.mermaid</tspan>
</text>
<text x="18" y="156.0" font-size="14" xml:space="preserve">
<tspan x="18.0" fill="#5fd7a7">$ </tspan>
<tspan x="34.8" fill="#e8eef6">graphmcp export to-excalidraw --id gthy53syt -o out/flow.excalidraw</tspan>
</text>
<text x="18" y="178.0" font-size="14" xml:space="preserve">
<tspan x="18.0" fill="#c9d4e3">excalidraw written: out/flow.excalidraw</tspan>
</text>
<text x="18" y="200.0" font-size="14" xml:space="preserve">
<tspan x="18.0" fill="#5fd7a7">$ </tspan>
<tspan x="34.8" fill="#e8eef6">graphmcp export to-svg --id gthy53syt -o out/flow.svg</tspan>
</text>
<text x="18" y="222.0" font-size="14" xml:space="preserve">
<tspan x="18.0" fill="#c9d4e3">svg written: out/flow.svg</tspan>
</text>
<text x="18" y="244.0" font-size="14" xml:space="preserve">
<tspan x="18.0" fill="#5fd7a7">$ </tspan>
<tspan x="34.8" fill="#e8eef6">graphmcp export to-png --id gthy53syt -o out/flow.png</tspan>
</text>
<text x="18" y="266.0" font-size="14" xml:space="preserve">
<tspan x="18.0" fill="#ff6b6b">error: no external converter found (tried inkscape/rsvg-convert/magick);</tspan>
</text>
<text x="18" y="288.0" font-size="14" xml:space="preserve">
<tspan x="18.0" fill="#c9d4e3">       wrote SVG fallback to out/flow.png.svg</tspan>
</text>
<text x="18" y="310.0" font-size="14" xml:space="preserve">
<tspan x="18.0" fill="#5fd7a7">$ </tspan>
<tspan x="34.8" fill="#e8eef6">graphmcp export to-url --id gthy53syt</tspan>
</text>
<text x="18" y="332.0" font-size="14" xml:space="preserve">
<tspan x="18.0" fill="#c9d4e3">https://mermaid.live/edit#base64:eyJjb2RlIjoiZmxvd2NoYXJ0I…</tspan>
</text>
</svg>