<svg xmlns="http://www.w3.org/2000/svg" width="615" height="268" viewBox="0 0 615 268" font-family="Cascadia Code, Consolas, SF Mono, Menlo, monospace">
<rect width="615" height="268" rx="10" fill="#1e2430"/>
<path d="M0 10a10 10 0 0 1 10-10h595a10 10 0 0 1 10 10v28H0z" fill="#161b24"/>
<circle cx="20" cy="19.0" r="6" fill="#ff5f57"/>
<circle cx="38" cy="19.0" r="6" fill="#febc2e"/>
<circle cx="56" cy="19.0" r="6" fill="#28c840"/>
<text x="307.5" y="23.5" fill="#7d8899" font-size="12.5" text-anchor="middle">结构校验 + CI 退出码</text>
<text x="18" y="68.0" font-size="14" xml:space="preserve">
<tspan x="18.0" fill="#5fd7a7">$ </tspan>
<tspan x="34.8" fill="#e8eef6">graphmcp validate input --file examples/example_input/flowchart.mmd</tspan>
</text>
<text x="18" y="90.0" font-size="14" xml:space="preserve">
<tspan x="18.0" fill="#5fd7a7">valid: no issues found</tspan>
</text>
<text x="18" y="112.0" font-size="14" xml:space="preserve">
<tspan x="18.0" fill="#5fd7a7">$ </tspan>
<tspan x="34.8" fill="#e8eef6">echo $?   →  0</tspan>
</text>
<text x="18" y="156.0" font-size="14" xml:space="preserve">
<tspan x="18.0" fill="#5fd7a7">$ </tspan>
<tspan x="34.8" fill="#e8eef6">graphmcp validate input --file broken.json --input-format model</tspan>
</text>
<text x="18" y="178.0" font-size="14" xml:space="preserve">
<tspan x="18.0" fill="#ff6b6b">  [error] duplicate node id: A</tspan>
</text>
<text x="18" y="200.0" font-size="14" xml:space="preserve">
<tspan x="18.0" fill="#ff6b6b">  [error] edge 'e1' references missing node 'GHOST'</tspan>
</text>
<text x="18" y="222.0" font-size="14" xml:space="preserve">
<tspan x="18.0" fill="#ffc857">  [warning] node 'C' is isolated (no edges)</tspan>
</text>
<text x="18" y="244.0" font-size="14" xml:space="preserve">
<tspan x="18.0" fill="#5fd7a7">$ </tspan>
<tspan x="34.8" fill="#e8eef6">echo $?   →  3        </tspan>
<tspan x="219.6" fill="#7d8899"># 有 error，CI 可据此拦截</tspan>
</text>
</svg>