<svg xmlns="http://www.w3.org/2000/svg" width="590" height="246" viewBox="0 0 590 246" font-family="Cascadia Code, Consolas, SF Mono, Menlo, monospace">
<rect width="590" height="246" rx="10" fill="#1e2430"/>
<path d="M0 10a10 10 0 0 1 10-10h570a10 10 0 0 1 10 10v28H0z" fill="#161b24"/>
<circle cx="20" cy="19.0" r="6" fill="#ff5f57"/>
<circle cx="38" cy="19.0" r="6" fill="#febc2e"/>
<circle cx="56" cy="19.0" r="6" fill="#28c840"/>
<text x="295.0" y="23.5" fill="#7d8899" font-size="12.5" text-anchor="middle">四种自动布局策略</text>
<text x="18" y="68.0" font-size="14" xml:space="preserve">
<tspan x="18.0" fill="#5fd7a7">$ </tspan>
<tspan x="34.8" fill="#e8eef6">graphmcp layout layered gthy53syt        </tspan>
<tspan x="379.2" fill="#7d8899"># 流程图：Kahn 拓扑分层</tspan>
</text>
<text x="18" y="90.0" font-size="14" xml:space="preserve">
<tspan x="18.0" fill="#c9d4e3">layout applied (6 nodes positioned)</tspan>
</text>
<text x="18" y="112.0" font-size="14" xml:space="preserve">
<tspan x="18.0" fill="#5fd7a7">$ </tspan>
<tspan x="34.8" fill="#e8eef6">graphmcp layout tree-h gthy53sle        </tspan>
<tspan x="370.8" fill="#7d8899"># 思维导图：水平树</tspan>
</text>
<text x="18" y="134.0" font-size="14" xml:space="preserve">
<tspan x="18.0" fill="#c9d4e3">layout applied (19 nodes positioned)</tspan>
</text>
<text x="18" y="156.0" font-size="14" xml:space="preserve">
<tspan x="18.0" fill="#5fd7a7">$ </tspan>
<tspan x="34.8" fill="#e8eef6">graphmcp layout tree-v gthy53tib        </tspan>
<tspan x="370.8" fill="#7d8899"># 组织架构：垂直树</tspan>
</text>
<text x="18" y="178.0" font-size="14" xml:space="preserve">
<tspan x="18.0" fill="#c9d4e3">layout applied (6 nodes positioned)</tspan>
</text>
<text x="18" y="200.0" font-size="14" xml:space="preserve">
<tspan x="18.0" fill="#5fd7a7">$ </tspan>
<tspan x="34.8" fill="#e8eef6">graphmcp layout auto gthy53syt --save   </tspan>
<tspan x="370.8" fill="#7d8899"># 自动选策略并存为新版本</tspan>
</text>
<text x="18" y="222.0" font-size="14" xml:space="preserve">
<tspan x="18.0" fill="#c9d4e3">layout applied and saved as v3</tspan>
</text>
</svg>