<svg xmlns="http://www.w3.org/2000/svg" width="531" height="422" viewBox="0 0 531 422" font-family="Cascadia Code, Consolas, SF Mono, Menlo, monospace">
<rect width="531" height="422" rx="10" fill="#1e2430"/>
<path d="M0 10a10 10 0 0 1 10-10h511a10 10 0 0 1 10 10v28H0z" fill="#161b24"/>
<circle cx="20" cy="19.0" r="6" fill="#ff5f57"/>
<circle cx="38" cy="19.0" r="6" fill="#febc2e"/>
<circle cx="56" cy="19.0" r="6" fill="#28c840"/>
<text x="265.5" y="23.5" fill="#7d8899" font-size="12.5" text-anchor="middle">版本控制：stage → commit → diff</text>
<text x="18" y="68.0" font-size="14" xml:space="preserve">
<tspan x="18.0" fill="#5fd7a7">$ </tspan>
<tspan x="34.8" fill="#e8eef6">graphmcp version stage gthy53syt</tspan>
</text>
<text x="18" y="90.0" font-size="14" xml:space="preserve">
<tspan x="18.0" fill="#c9d4e3">staged 2 operation(s) for gthy53syt</tspan>
</text>
<text x="18" y="112.0" font-size="14" xml:space="preserve">
<tspan x="18.0" fill="#5fd7a7">$ </tspan>
<tspan x="34.8" fill="#e8eef6">graphmcp version commit gthy53syt -m "接入风控"</tspan>
</text>
<text x="18" y="134.0" font-size="14" xml:space="preserve">
<tspan x="18.0" fill="#c9d4e3">committed gthy53syt v2: 接入风控</tspan>
</text>
<text x="18" y="178.0" font-size="14" xml:space="preserve">
<tspan x="18.0" fill="#5fd7a7">$ </tspan>
<tspan x="34.8" fill="#e8eef6">graphmcp version log gthy53syt</tspan>
</text>
<text x="18" y="200.0" font-size="14" xml:space="preserve">
<tspan x="18.0" fill="#c9d4e3">v1  2026-07-10T14:38:16  created via CLI  (nodes=5 edges=4)</tspan>
</text>
<text x="18" y="222.0" font-size="14" xml:space="preserve">
<tspan x="18.0" fill="#c9d4e3">v2  2026-07-10T14:38:34  接入风控  (nodes=6 edges=4)</tspan>
</text>
<text x="18" y="266.0" font-size="14" xml:space="preserve">
<tspan x="18.0" fill="#5fd7a7">$ </tspan>
<tspan x="34.8" fill="#e8eef6">graphmcp version diff gthy53syt 1 2</tspan>
</text>
<text x="18" y="288.0" font-size="14" xml:space="preserve">
<tspan x="18.0" fill="#c9d4e3">diff gthy53syt v1 → v2</tspan>
</text>
<text x="18" y="310.0" font-size="14" xml:space="preserve">
<tspan x="18.0" fill="#5fd7a7">  + NODE_INSERT node n1</tspan>
</text>
<text x="18" y="332.0" font-size="14" xml:space="preserve">
<tspan x="18.0" fill="#ffc857">  ~ NODE_UPDATE node A (1 fields)</tspan>
</text>
<text x="18" y="354.0" font-size="14" xml:space="preserve">
<tspan x="18.0" fill="#c9d4e3">       label: "需求输入" → "用户下单"</tspan>
</text>
<text x="18" y="398.0" font-size="14" xml:space="preserve">
<tspan x="18.0" fill="#c9d4e3">Summary: +1 added, ~1 modified, -0 deleted</tspan>
</text>
</svg>