<svg xmlns="http://www.w3.org/2000/svg" width="834" height="246" viewBox="0 0 834 246" font-family="Cascadia Code, Consolas, SF Mono, Menlo, monospace">
<rect width="834" height="246" rx="10" fill="#1e2430"/>
<path d="M0 10a10 10 0 0 1 10-10h814a10 10 0 0 1 10 10v28H0z" fill="#161b24"/>
<circle cx="20" cy="19.0" r="6" fill="#ff5f57"/>
<circle cx="38" cy="19.0" r="6" fill="#febc2e"/>
<circle cx="56" cy="19.0" r="6" fill="#28c840"/>
<text x="417.0" y="23.5" fill="#7d8899" font-size="12.5" text-anchor="middle">自动识别格式并入库</text>
<text x="18" y="68.0" font-size="14" xml:space="preserve">
<tspan x="18.0" fill="#5fd7a7">$ </tspan>
<tspan x="34.8" fill="#e8eef6">graphmcp create from-input --file examples/example_input/flowchart.mmd --name "订单流程"</tspan>
</text>
<text x="18" y="90.0" font-size="14" xml:space="preserve">
<tspan x="18.0" fill="#c9d4e3">created graph '订单流程' id=gthy53syt v1 (5 nodes, 4 edges, type=flowchart)</tspan>
</text>
<text x="18" y="112.0" font-size="14" xml:space="preserve">
<tspan x="18.0" fill="#5fd7a7">$ </tspan>
<tspan x="34.8" fill="#e8eef6">graphmcp create from-input --file examples/example_input/outline.md --name "项目脑图"</tspan>
</text>
<text x="18" y="134.0" font-size="14" xml:space="preserve">
<tspan x="18.0" fill="#c9d4e3">created graph '项目脑图' id=gthy53sle v1 (19 nodes, 18 edges, type=mindmap)</tspan>
</text>
<text x="18" y="156.0" font-size="14" xml:space="preserve">
<tspan x="18.0" fill="#5fd7a7">$ </tspan>
<tspan x="34.8" fill="#e8eef6">graphmcp create from-input --file examples/example_input/orgchart.csv --name "组织架构"</tspan>
</text>
<text x="18" y="178.0" font-size="14" xml:space="preserve">
<tspan x="18.0" fill="#c9d4e3">created graph '组织架构' id=gthy53tib v1 (6 nodes, 5 edges, type=orgchart)</tspan>
</text>
<text x="18" y="200.0" font-size="14" xml:space="preserve">
<tspan x="18.0" fill="#5fd7a7">$ </tspan>
<tspan x="34.8" fill="#e8eef6">graphmcp create from-input --file examples/example_input/architecture.xml --name "微服务架构"</tspan>
</text>
<text x="18" y="222.0" font-size="14" xml:space="preserve">
<tspan x="18.0" fill="#c9d4e3">created graph '微服务架构' id=gthy53td0 v1 (5 nodes, 3 edges, type=architecture)</tspan>
</text>
</svg>