<svg xmlns="http://www.w3.org/2000/svg" width="408" height="476" viewBox="0 0 408 476">
  <defs><marker id="arrow" viewBox="0 0 10 10" refX="9" refY="5" markerWidth="7" markerHeight="7" orient="auto-start-reverse"><path d="M0,0 L10,5 L0,10 z" fill="#333"/></marker></defs>
  <style>text{font-family:'Segoe UI',Arial,sans-serif;font-size:13px;}.lbl{fill:#222;}.elabel{fill:#555;font-size:11px;}</style>
  <polyline fill="none" stroke="#333" stroke-width="1.5" stroke-linejoin="round" points="135.001,64 142.479,104 149.958,144" marker-end="url(#arrow)"/>
  <polyline fill="none" stroke="#333" stroke-width="1.5" stroke-linejoin="round" points="149.958,188 120.653,228 91.3488,268" marker-end="url(#arrow)"/>
  <polyline fill="none" stroke="#333" stroke-width="1.5" stroke-linejoin="round" points="91.3488,312 81.1744,352 71,392" marker-end="url(#arrow)"/>
  <polyline fill="none" stroke="#333" stroke-width="1.5" stroke-linejoin="round" points="149.958,188 212.153,228 274.349,268" marker-end="url(#arrow)"/>
  <polyline fill="none" stroke="#333" stroke-width="1.5" stroke-linejoin="round" points="274.349,312 274.674,352 275,392" marker-end="url(#arrow)"/>
  <rect x="63.001" y="20" width="144" height="44" rx="4" fill="#eef4ff" stroke="#4a72b8"/>
  <text class="lbl" x="135.001" y="47" text-anchor="middle">文本/结构化输入</text>
  <rect x="77.9578" y="144" width="144" height="44" rx="4" fill="#eef4ff" stroke="#4a72b8"/>
  <text class="lbl" x="149.958" y="171" text-anchor="middle">统一 Graph</text>
  <rect x="40.3488" y="268" width="102" height="44" rx="4" fill="#eef4ff" stroke="#4a72b8"/>
  <text class="lbl" x="91.3488" y="295" text-anchor="middle">校验/布局</text>
  <rect x="20" y="392" width="102" height="44" rx="4" fill="#eef4ff" stroke="#4a72b8"/>
  <text class="lbl" x="71" y="419" text-anchor="middle">多格式导出</text>
  <rect x="202.349" y="268" width="144" height="44" rx="4" fill="#eef4ff" stroke="#4a72b8"/>
  <text class="lbl" x="274.349" y="295" text-anchor="middle">文件系统版本存储</text>
  <rect x="182" y="392" width="186" height="44" rx="4" fill="#eef4ff" stroke="#4a72b8"/>
  <text class="lbl" x="275" y="419" text-anchor="middle">MCP/CLI 可调用</text>
</svg>
