<svg xmlns="http://www.w3.org/2000/svg" width="322" height="1468" viewBox="0 0 322 1468">
  <defs><marker id="arrow" viewBox="0 0 10 10" refX="9" refY="5" markerWidth="7" markerHeight="7" orient="auto-start-reverse"><path d="M0,0 L10,5 L0,10 z" fill="#333"/></marker></defs>
  <style>text{font-family:'Segoe UI',Arial,sans-serif;font-size:13px;}.lbl{fill:#222;}.elabel{fill:#555;font-size:11px;}</style>
  <line x1="151" y1="64" x2="151" y2="392" stroke="#333" stroke-width="1.5" marker-end="url(#arrow)"/>
  <line x1="151" y1="64" x2="151" y2="144" stroke="#333" stroke-width="1.5" marker-end="url(#arrow)"/>
  <line x1="151" y1="188" x2="151" y2="268" stroke="#333" stroke-width="1.5" marker-end="url(#arrow)"/>
  <line x1="151" y1="312" x2="151" y2="392" stroke="#333" stroke-width="1.5" marker-end="url(#arrow)"/>
  <line x1="151" y1="436" x2="151" y2="516" stroke="#333" stroke-width="1.5" marker-end="url(#arrow)"/>
  <line x1="136.806" y1="560" x2="85.1935" y2="640" stroke="#333" stroke-width="1.5" marker-end="url(#arrow)"/>
  <line x1="165.194" y1="560" x2="216.806" y2="640" stroke="#333" stroke-width="1.5" marker-end="url(#arrow)"/>
  <line x1="85.1935" y1="684" x2="136.806" y2="764" stroke="#333" stroke-width="1.5" marker-end="url(#arrow)"/>
  <line x1="216.806" y1="684" x2="165.194" y2="764" stroke="#333" stroke-width="1.5" marker-end="url(#arrow)"/>
  <line x1="151" y1="808" x2="151" y2="888" stroke="#333" stroke-width="1.5" marker-end="url(#arrow)"/>
  <line x1="151" y1="932" x2="151" y2="1012" stroke="#333" stroke-width="1.5" marker-end="url(#arrow)"/>
  <line x1="136.806" y1="1056" x2="85.1935" y2="1136" stroke="#333" stroke-width="1.5" marker-end="url(#arrow)"/>
  <line x1="165.371" y1="1056" x2="217.629" y2="1136" stroke="#333" stroke-width="1.5" marker-end="url(#arrow)"/>
  <line x1="85.1935" y1="1180" x2="136.806" y2="1260" stroke="#333" stroke-width="1.5" marker-end="url(#arrow)"/>
  <line x1="224.859" y1="1136" x2="78.1411" y2="684" stroke="#333" stroke-width="1.5" marker-end="url(#arrow)"/>
  <line x1="151" y1="1304" x2="151" y2="1384" stroke="#333" stroke-width="1.5" marker-end="url(#arrow)"/>
  <rect x="101" y="20" width="100" height="44" rx="4" fill="#eef4ff" stroke="#4a72b8"/>
  <text class="lbl" x="151" y="47" text-anchor="middle">创意阶段</text>
  <rect x="101" y="392" width="100" height="44" rx="4" fill="#eef4ff" stroke="#4a72b8"/>
  <text class="lbl" x="151" y="419" text-anchor="middle">原型开发</text>
  <rect x="101" y="144" width="100" height="44" rx="4" fill="#eef4ff" stroke="#4a72b8"/>
  <text class="lbl" x="151" y="171" text-anchor="middle">市场调研</text>
  <rect x="101" y="268" width="100" height="44" rx="4" fill="#eef4ff" stroke="#4a72b8"/>
  <text class="lbl" x="151" y="295" text-anchor="middle">竞品分析</text>
  <rect x="101" y="516" width="100" height="44" rx="4" fill="#eef4ff" stroke="#4a72b8"/>
  <text class="lbl" x="151" y="543" text-anchor="middle">内部测试</text>
  <rect x="21" y="640" width="100" height="44" rx="4" fill="#eef4ff" stroke="#4a72b8"/>
  <text class="lbl" x="71" y="667" text-anchor="middle">数值策划</text>
  <rect x="181" y="640" width="100" height="44" rx="4" fill="#eef4ff" stroke="#4a72b8"/>
  <text class="lbl" x="231" y="667" text-anchor="middle">美术评审</text>
  <rect x="101" y="764" width="100" height="44" rx="4" fill="#eef4ff" stroke="#4a72b8"/>
  <text class="lbl" x="151" y="791" text-anchor="middle">技术评审</text>
  <rect x="86" y="888" width="130" height="44" rx="4" fill="#eef4ff" stroke="#4a72b8"/>
  <text class="lbl" x="151" y="915" text-anchor="middle">Alpha版本</text>
  <rect x="101" y="1012" width="100" height="44" rx="4" fill="#eef4ff" stroke="#4a72b8"/>
  <text class="lbl" x="151" y="1039" text-anchor="middle">外部测试</text>
  <rect x="20" y="1136" width="102" height="44" rx="4" fill="#eef4ff" stroke="#4a72b8"/>
  <text class="lbl" x="71" y="1163" text-anchor="middle">Bug修复</text>
  <rect x="182" y="1136" width="100" height="44" rx="4" fill="#eef4ff" stroke="#4a72b8"/>
  <text class="lbl" x="232" y="1163" text-anchor="middle">数据埋点</text>
  <rect x="93" y="1260" width="116" height="44" rx="4" fill="#eef4ff" stroke="#4a72b8"/>
  <text class="lbl" x="151" y="1287" text-anchor="middle">Beta版本</text>
  <rect x="101" y="1384" width="100" height="44" rx="4" fill="#eef4ff" stroke="#4a72b8"/>
  <text class="lbl" x="151" y="1411" text-anchor="middle">正式发布</text>
</svg>
