<svg xmlns="http://www.w3.org/2000/svg" width="2560" height="228" viewBox="0 0 2560 228">
  <defs><marker id="arrow" viewBox="0 0 10 10" refX="9" refY="5" markerWidth="7" markerHeight="7" orient="auto-start-reverse"><path d="M0,0 L10,5 L0,10 z" fill="#333"/></marker></defs>
  <style>text{font-family:'Segoe UI',Arial,sans-serif;font-size:13px;}.lbl{fill:#222;}.elabel{fill:#555;font-size:11px;}</style>
  <line x1="120" y1="47.1667" x2="1220" y2="160.833" stroke="#333" stroke-width="1.5" marker-end="url(#arrow)"/>
  <line x1="1220" y1="158.955" x2="440" y2="49.0455" stroke="#333" stroke-width="1.5" marker-end="url(#arrow)"/>
  <line x1="1220" y1="157.389" x2="600" y2="50.6111" stroke="#333" stroke-width="1.5" marker-end="url(#arrow)"/>
  <line x1="1220" y1="154.929" x2="760" y2="53.0714" stroke="#333" stroke-width="1.5" marker-end="url(#arrow)"/>
  <line x1="440" y1="42" x2="820" y2="42" stroke="#333" stroke-width="1.5" marker-end="url(#arrow)"/>
  <line x1="600" y1="42" x2="980" y2="42" stroke="#333" stroke-width="1.5" marker-end="url(#arrow)"/>
  <line x1="760" y1="42" x2="1140" y2="42" stroke="#333" stroke-width="1.5" marker-end="url(#arrow)"/>
  <line x1="920" y1="42" x2="1300" y2="42" stroke="#333" stroke-width="1.5" marker-end="url(#arrow)"/>
  <line x1="1080" y1="42" x2="1300" y2="42" stroke="#333" stroke-width="1.5" marker-end="url(#arrow)"/>
  <line x1="1240" y1="42" x2="1300" y2="42" stroke="#333" stroke-width="1.5" marker-end="url(#arrow)"/>
  <line x1="1400" y1="42" x2="1460" y2="42" stroke="#333" stroke-width="1.5" marker-end="url(#arrow)"/>
  <line x1="1460" y1="42" x2="280" y2="42" stroke="#333" stroke-width="1.5" marker-end="url(#arrow)"/>
  <line x1="1560" y1="42" x2="1620" y2="42" stroke="#333" stroke-width="1.5" marker-end="url(#arrow)"/>
  <line x1="280" y1="47.9615" x2="1220" y2="160.038" stroke="#333" stroke-width="1.5" marker-end="url(#arrow)"/>
  <line x1="1620" y1="42" x2="1400" y2="42" stroke="#333" stroke-width="1.5" marker-end="url(#arrow)"/>
  <line x1="1400" y1="42" x2="1780" y2="42" stroke="#333" stroke-width="1.5" marker-end="url(#arrow)"/>
  <line x1="1880" y1="42" x2="1940" y2="42" stroke="#333" stroke-width="1.5" marker-end="url(#arrow)"/>
  <line x1="1940" y1="42" x2="1400" y2="42" stroke="#333" stroke-width="1.5" marker-end="url(#arrow)"/>
  <line x1="1400" y1="42" x2="2100" y2="42" stroke="#333" stroke-width="1.5" marker-end="url(#arrow)"/>
  <line x1="2100" y1="42" x2="1400" y2="42" stroke="#333" stroke-width="1.5" marker-end="url(#arrow)"/>
  <line x1="1560" y1="42" x2="2260" y2="42" stroke="#333" stroke-width="1.5" marker-end="url(#arrow)"/>
  <line x1="2360" y1="42" x2="2420" y2="42" stroke="#333" stroke-width="1.5" marker-end="url(#arrow)"/>
  <line x1="2420" y1="42" x2="280" y2="42" stroke="#333" stroke-width="1.5" marker-end="url(#arrow)"/>
  <rect x="20" y="20" width="100" height="44" rx="4" fill="#eef4ff" stroke="#4a72b8"/>
  <text class="lbl" x="70" y="47" text-anchor="middle">游戏启动</text>
  <rect x="1220" y="144" width="100" height="44" rx="4" fill="#eef4ff" stroke="#4a72b8"/>
  <text class="lbl" x="1270" y="171" text-anchor="middle">选择模式</text>
  <rect x="340" y="20" width="100" height="44" rx="4" fill="#eef4ff" stroke="#4a72b8"/>
  <text class="lbl" x="390" y="47" text-anchor="middle">单人模式</text>
  <rect x="500" y="20" width="100" height="44" rx="4" fill="#eef4ff" stroke="#4a72b8"/>
  <text class="lbl" x="550" y="47" text-anchor="middle">多人模式</text>
  <rect x="660" y="20" width="100" height="44" rx="4" fill="#eef4ff" stroke="#4a72b8"/>
  <text class="lbl" x="710" y="47" text-anchor="middle">教学模式</text>
  <rect x="820" y="20" width="100" height="44" rx="4" fill="#eef4ff" stroke="#4a72b8"/>
  <text class="lbl" x="870" y="47" text-anchor="middle">关卡选择</text>
  <rect x="980" y="20" width="100" height="44" rx="4" fill="#eef4ff" stroke="#4a72b8"/>
  <text class="lbl" x="1030" y="47" text-anchor="middle">匹配房间</text>
  <rect x="1140" y="20" width="100" height="44" rx="4" fill="#eef4ff" stroke="#4a72b8"/>
  <text class="lbl" x="1190" y="47" text-anchor="middle">引导关卡</text>
  <rect x="1300" y="20" width="100" height="44" rx="4" fill="#eef4ff" stroke="#4a72b8"/>
  <text class="lbl" x="1350" y="47" text-anchor="middle">核心战斗</text>
  <rect x="1460" y="20" width="100" height="44" rx="4" fill="#eef4ff" stroke="#4a72b8"/>
  <text class="lbl" x="1510" y="47" text-anchor="middle">结算界面</text>
  <rect x="180" y="20" width="100" height="44" rx="4" fill="#eef4ff" stroke="#4a72b8"/>
  <text class="lbl" x="230" y="47" text-anchor="middle">返回大厅</text>
  <rect x="1620" y="20" width="100" height="44" rx="4" fill="#eef4ff" stroke="#4a72b8"/>
  <text class="lbl" x="1670" y="47" text-anchor="middle">重新挑战</text>
  <rect x="1780" y="20" width="100" height="44" rx="4" fill="#eef4ff" stroke="#4a72b8"/>
  <text class="lbl" x="1830" y="47" text-anchor="middle">角色养成</text>
  <rect x="1940" y="20" width="100" height="44" rx="4" fill="#eef4ff" stroke="#4a72b8"/>
  <text class="lbl" x="1990" y="47" text-anchor="middle">装备系统</text>
  <rect x="2100" y="20" width="100" height="44" rx="4" fill="#eef4ff" stroke="#4a72b8"/>
  <text class="lbl" x="2150" y="47" text-anchor="middle">技能树</text>
  <rect x="2260" y="20" width="100" height="44" rx="4" fill="#eef4ff" stroke="#4a72b8"/>
  <text class="lbl" x="2310" y="47" text-anchor="middle">成就系统</text>
  <rect x="2420" y="20" width="100" height="44" rx="4" fill="#eef4ff" stroke="#4a72b8"/>
  <text class="lbl" x="2470" y="47" text-anchor="middle">收集图鉴</text>
</svg>
