<svg xmlns="http://www.w3.org/2000/svg" width="1168" height="848" viewBox="0 0 1168 848">
  <defs><marker id="arrow" viewBox="0 0 10 10" refX="9" refY="5" markerWidth="7" markerHeight="7" orient="auto-start-reverse"><path d="M0,0 L10,5 L0,10 z" fill="#333"/></marker></defs>
  <style>text{font-family:'Segoe UI',Arial,sans-serif;font-size:13px;}.lbl{fill:#222;}.elabel{fill:#555;font-size:11px;}</style>
  <line x1="99.8065" y1="64" x2="544.194" y2="392" stroke="#333" stroke-width="1.5" marker-end="url(#arrow)"/>
  <line x1="120" y1="54.3016" x2="524" y2="153.698" stroke="#333" stroke-width="1.5" marker-end="url(#arrow)"/>
  <line x1="574" y1="188" x2="574" y2="268" stroke="#333" stroke-width="1.5" marker-end="url(#arrow)"/>
  <line x1="574" y1="312" x2="574" y2="392" stroke="#333" stroke-width="1.5" marker-end="url(#arrow)"/>
  <line x1="574" y1="436" x2="574" y2="516" stroke="#333" stroke-width="1.5" marker-end="url(#arrow)"/>
  <line x1="559.806" y1="560" x2="508.194" y2="640" stroke="#333" stroke-width="1.5" marker-end="url(#arrow)"/>
  <line x1="588.194" y1="560" x2="639.806" y2="640" stroke="#333" stroke-width="1.5" marker-end="url(#arrow)"/>
  <line x1="508.194" y1="684" x2="559.806" y2="764" stroke="#333" stroke-width="1.5" marker-end="url(#arrow)"/>
  <line x1="639.806" y1="684" x2="588.194" y2="764" stroke="#333" stroke-width="1.5" marker-end="url(#arrow)"/>
  <line x1="564.272" y1="764" x2="254.728" y2="64" stroke="#333" stroke-width="1.5" marker-end="url(#arrow)"/>
  <line x1="310" y1="42" x2="370" y2="42" stroke="#333" stroke-width="1.5" marker-end="url(#arrow)"/>
  <line x1="470" y1="42" x2="530" y2="42" stroke="#333" stroke-width="1.5" marker-end="url(#arrow)"/>
  <line x1="470" y1="42" x2="692" y2="42" stroke="#333" stroke-width="1.5" marker-end="url(#arrow)"/>
  <line x1="632" y1="42" x2="852" y2="42" stroke="#333" stroke-width="1.5" marker-end="url(#arrow)"/>
  <line x1="733.2" y1="64" x2="502.8" y2="640" stroke="#333" stroke-width="1.5" marker-end="url(#arrow)"/>
  <line x1="968" y1="42" x2="1028" y2="42" stroke="#333" stroke-width="1.5" marker-end="url(#arrow)"/>
  <rect x="20" y="20" width="100" height="44" rx="4" fill="#eef4ff" stroke="#4a72b8"/>
  <text class="lbl" x="70" y="47" text-anchor="middle">创意阶段</text>
  <rect x="524" y="392" width="100" height="44" rx="4" fill="#eef4ff" stroke="#4a72b8"/>
  <text class="lbl" x="574" y="419" text-anchor="middle">原型开发</text>
  <rect x="524" y="144" width="100" height="44" rx="4" fill="#eef4ff" stroke="#4a72b8"/>
  <text class="lbl" x="574" y="171" text-anchor="middle">市场调研</text>
  <rect x="524" y="268" width="100" height="44" rx="4" fill="#eef4ff" stroke="#4a72b8"/>
  <text class="lbl" x="574" y="295" text-anchor="middle">竞品分析</text>
  <rect x="524" y="516" width="100" height="44" rx="4" fill="#eef4ff" stroke="#4a72b8"/>
  <text class="lbl" x="574" y="543" text-anchor="middle">内部测试</text>
  <rect x="444" y="640" width="100" height="44" rx="4" fill="#eef4ff" stroke="#4a72b8"/>
  <text class="lbl" x="494" y="667" text-anchor="middle">数值策划</text>
  <rect x="604" y="640" width="100" height="44" rx="4" fill="#eef4ff" stroke="#4a72b8"/>
  <text class="lbl" x="654" y="667" text-anchor="middle">美术评审</text>
  <rect x="524" y="764" width="100" height="44" rx="4" fill="#eef4ff" stroke="#4a72b8"/>
  <text class="lbl" x="574" y="791" text-anchor="middle">技术评审</text>
  <rect x="180" y="20" width="130" height="44" rx="4" fill="#eef4ff" stroke="#4a72b8"/>
  <text class="lbl" x="245" y="47" text-anchor="middle">Alpha版本</text>
  <rect x="370" y="20" width="100" height="44" rx="4" fill="#eef4ff" stroke="#4a72b8"/>
  <text class="lbl" x="420" y="47" text-anchor="middle">外部测试</text>
  <rect x="530" y="20" width="102" height="44" rx="4" fill="#eef4ff" stroke="#4a72b8"/>
  <text class="lbl" x="581" y="47" text-anchor="middle">Bug修复</text>
  <rect x="692" y="20" width="100" height="44" rx="4" fill="#eef4ff" stroke="#4a72b8"/>
  <text class="lbl" x="742" y="47" text-anchor="middle">数据埋点</text>
  <rect x="852" y="20" width="116" height="44" rx="4" fill="#eef4ff" stroke="#4a72b8"/>
  <text class="lbl" x="910" y="47" text-anchor="middle">Beta版本</text>
  <rect x="1028" y="20" width="100" height="44" rx="4" fill="#eef4ff" stroke="#4a72b8"/>
  <text class="lbl" x="1078" y="47" text-anchor="middle">正式发布</text>
</svg>
