<svg xmlns="http://www.w3.org/2000/svg" width="441" height="1468" viewBox="0 0 441 1468">
  <defs><marker id="arrow" viewBox="0 0 10 10" refX="9" refY="5" markerWidth="7" markerHeight="7" orient="auto-start-reverse"><path d="M0,0 L10,5 L0,10 z" fill="#333"/></marker></defs>
  <style>text{font-family:'Segoe UI',Arial,sans-serif;font-size:13px;}.lbl{fill:#222;}.elabel{fill:#555;font-size:11px;}</style>
  <polyline fill="none" stroke="#333" stroke-width="1.5" stroke-linejoin="round" points="141.751,64 143.775,228 145.798,392" marker-end="url(#arrow)"/>
  <polyline fill="none" stroke="#333" stroke-width="1.5" stroke-linejoin="round" points="141.751,64 125.797,104 109.843,144" marker-end="url(#arrow)"/>
  <polyline fill="none" stroke="#333" stroke-width="1.5" stroke-linejoin="round" points="109.843,188 109.939,228 110.035,268" marker-end="url(#arrow)"/>
  <polyline fill="none" stroke="#333" stroke-width="1.5" stroke-linejoin="round" points="110.035,312 127.917,352 145.798,392" marker-end="url(#arrow)"/>
  <polyline fill="none" stroke="#333" stroke-width="1.5" stroke-linejoin="round" points="145.798,436 171.487,476 197.175,516" marker-end="url(#arrow)"/>
  <polyline fill="none" stroke="#333" stroke-width="1.5" stroke-linejoin="round" points="197.175,560 194.53,600 191.885,640" marker-end="url(#arrow)"/>
  <polyline fill="none" stroke="#333" stroke-width="1.5" stroke-linejoin="round" points="247.175,538 274.53,600 401.885,662" marker-end="url(#arrow)"/>
  <polyline fill="none" stroke="#333" stroke-width="1.5" stroke-linejoin="round" points="191.885,684 190.048,724 188.211,764" marker-end="url(#arrow)"/>
  <polyline fill="none" stroke="#333" stroke-width="1.5" stroke-linejoin="round" points="301.885,662 270.048,724 138.211,786" marker-end="url(#arrow)"/>
  <polyline fill="none" stroke="#333" stroke-width="1.5" stroke-linejoin="round" points="188.211,808 159.731,848 131.252,888" marker-end="url(#arrow)"/>
  <polyline fill="none" stroke="#333" stroke-width="1.5" stroke-linejoin="round" points="131.252,932 135.208,972 139.165,1012" marker-end="url(#arrow)"/>
  <polyline fill="none" stroke="#333" stroke-width="1.5" stroke-linejoin="round" points="139.165,1056 116.933,1096 94.7,1136" marker-end="url(#arrow)"/>
  <polyline fill="none" stroke="#333" stroke-width="1.5" stroke-linejoin="round" points="189.165,1034 197.433,1096 305.7,1158" marker-end="url(#arrow)"/>
  <polyline fill="none" stroke="#333" stroke-width="1.5" stroke-linejoin="round" points="94.7,1180 86.35,1220 78,1260" marker-end="url(#arrow)"/>
  <polyline fill="none" stroke="#b0714b" stroke-width="1.5" stroke-linejoin="round" points="305.7,1158 223.793,1158 223.793,662 241.885,662" stroke-dasharray="6,4" marker-end="url(#arrow)"/>
  <polyline fill="none" stroke="#333" stroke-width="1.5" stroke-linejoin="round" points="78,1304 76.2596,1344 74.5191,1384" marker-end="url(#arrow)"/>
  <rect x="91.7511" y="20" width="100" height="44" rx="4" fill="#eef4ff" stroke="#4a72b8"/>
  <text class="lbl" x="141.751" y="47" text-anchor="middle">创意阶段</text>
  <rect x="95.7982" y="392" width="100" height="44" rx="4" fill="#eef4ff" stroke="#4a72b8"/>
  <text class="lbl" x="145.798" y="419" text-anchor="middle">原型开发</text>
  <rect x="59.8435" y="144" width="100" height="44" rx="4" fill="#eef4ff" stroke="#4a72b8"/>
  <text class="lbl" x="109.843" y="171" text-anchor="middle">市场调研</text>
  <rect x="60.035" y="268" width="100" height="44" rx="4" fill="#eef4ff" stroke="#4a72b8"/>
  <text class="lbl" x="110.035" y="295" text-anchor="middle">竞品分析</text>
  <rect x="147.175" y="516" width="100" height="44" rx="4" fill="#eef4ff" stroke="#4a72b8"/>
  <text class="lbl" x="197.175" y="543" text-anchor="middle">内部测试</text>
  <rect x="141.885" y="640" width="100" height="44" rx="4" fill="#eef4ff" stroke="#4a72b8"/>
  <text class="lbl" x="191.885" y="667" text-anchor="middle">数值策划</text>
  <rect x="301.885" y="640" width="100" height="44" rx="4" fill="#eef4ff" stroke="#4a72b8"/>
  <text class="lbl" x="351.885" y="667" text-anchor="middle">美术评审</text>
  <rect x="138.211" y="764" width="100" height="44" rx="4" fill="#eef4ff" stroke="#4a72b8"/>
  <text class="lbl" x="188.211" y="791" text-anchor="middle">技术评审</text>
  <rect x="66.2515" y="888" width="130" height="44" rx="4" fill="#eef4ff" stroke="#4a72b8"/>
  <text class="lbl" x="131.252" y="915" text-anchor="middle">Alpha版本</text>
  <rect x="89.1654" y="1012" width="100" height="44" rx="4" fill="#eef4ff" stroke="#4a72b8"/>
  <text class="lbl" x="139.165" y="1039" text-anchor="middle">外部测试</text>
  <rect x="43.7" y="1136" width="102" height="44" rx="4" fill="#eef4ff" stroke="#4a72b8"/>
  <text class="lbl" x="94.7" y="1163" text-anchor="middle">Bug修复</text>
  <rect x="205.7" y="1136" width="100" height="44" rx="4" fill="#eef4ff" stroke="#4a72b8"/>
  <text class="lbl" x="255.7" y="1163" text-anchor="middle">数据埋点</text>
  <rect x="20" y="1260" width="116" height="44" rx="4" fill="#eef4ff" stroke="#4a72b8"/>
  <text class="lbl" x="78" y="1287" text-anchor="middle">Beta版本</text>
  <rect x="24.5191" y="1384" width="100" height="44" rx="4" fill="#eef4ff" stroke="#4a72b8"/>
  <text class="lbl" x="74.5191" y="1411" text-anchor="middle">正式发布</text>
</svg>
