<svg xmlns="http://www.w3.org/2000/svg" width="1236" height="740" viewBox="0 0 1236 740">
  <defs><marker id="arrow" viewBox="0 0 10 10" refX="9" refY="5" markerWidth="7" markerHeight="7" orient="auto-start-reverse"><path d="M0,0 L10,5 L0,10 z" fill="#333"/></marker></defs>
  <style>text{font-family:'Segoe UI',Arial,sans-serif;font-size:13px;}.lbl{fill:#222;}.elabel{fill:#555;font-size:11px;}</style>
  <line x1="608" y1="64" x2="608" y2="144" stroke="#333" stroke-width="1.5" marker-end="url(#arrow)"/>
  <line x1="608" y1="204" x2="608" y2="284" stroke="#333" stroke-width="1.5" marker-end="url(#arrow)"/>
  <line x1="608" y1="328" x2="608" y2="408" stroke="#333" stroke-width="1.5" marker-end="url(#arrow)"/>
  <line x1="522.661" y1="452" x2="212.339" y2="532" stroke="#333" stroke-width="1.5" marker-end="url(#arrow)"/>
  <line x1="573.758" y1="452" x2="449.242" y2="532" stroke="#333" stroke-width="1.5" marker-end="url(#arrow)"/>
  <line x1="629.823" y1="452" x2="709.177" y2="532" stroke="#333" stroke-width="1.5" marker-end="url(#arrow)"/>
  <line x1="688.371" y1="452" x2="980.629" y2="532" stroke="#333" stroke-width="1.5" marker-end="url(#arrow)"/>
  <line x1="980.629" y1="576" x2="673" y2="660.208" stroke="#333" stroke-width="1.5" marker-end="url(#arrow)"/>
  <rect x="543" y="20" width="130" height="44" rx="4" fill="#eef4ff" stroke="#4a72b8"/>
  <text class="lbl" x="608" y="47" text-anchor="middle">5 种输入格式</text>
  <polygon points="608,144 743,174 608,204 473,174" fill="#fff7e0" stroke="#c9a227"/>
  <text class="lbl" x="608" y="179" text-anchor="middle">detectFormat 自动识别</text>
  <rect x="487" y="284" width="242" height="44" rx="4" fill="#eef4ff" stroke="#4a72b8"/>
  <text class="lbl" x="608" y="311" text-anchor="middle">parsers.hpp 解析层</text>
  <rect x="487" y="408" width="242" height="44" rx="4" fill="#eef4ff" stroke="#4a72b8"/>
  <text class="lbl" x="608" y="435" text-anchor="middle">model.hpp 统一图模型</text>
  <rect x="20" y="532" width="214" height="44" rx="4" fill="#eef4ff" stroke="#4a72b8"/>
  <text class="lbl" x="127" y="559" text-anchor="middle">validate 结构校验</text>
  <rect x="294" y="532" width="242" height="44" rx="4" fill="#eef4ff" stroke="#4a72b8"/>
  <text class="lbl" x="415" y="559" text-anchor="middle">layout.hpp 自动布局</text>
  <rect x="596" y="532" width="270" height="44" rx="4" fill="#eef4ff" stroke="#4a72b8"/>
  <text class="lbl" x="731" y="559" text-anchor="middle">storage.hpp 版本化存储</text>
  <rect x="926" y="532" width="270" height="44" rx="4" fill="#eef4ff" stroke="#4a72b8"/>
  <text class="lbl" x="1061" y="559" text-anchor="middle">exporters.hpp 导出层</text>
  <rect x="543" y="656" width="130" height="44" rx="4" fill="#eef4ff" stroke="#4a72b8"/>
  <text class="lbl" x="608" y="683" text-anchor="middle">8 种输出格式</text>
</svg>
