<svg xmlns="http://www.w3.org/2000/svg" width="288" height="616" viewBox="0 0 288 616">
  <defs><marker id="arrow" viewBox="0 0 10 10" refX="9" refY="5" markerWidth="7" markerHeight="7" orient="auto-start-reverse"><path d="M0,0 L10,5 L0,10 z" fill="#333"/></marker></defs>
  <style>text{font-family:'Segoe UI',Arial,sans-serif;font-size:13px;}.lbl{fill:#222;}.elabel{fill:#555;font-size:11px;}</style>
  <polyline fill="none" stroke="#333" stroke-width="1.5" stroke-linejoin="round" points="134,64 134,104 134,144" marker-end="url(#arrow)"/>
  <polyline fill="none" stroke="#333" stroke-width="1.5" stroke-linejoin="round" points="134,188 134,228 134,268" marker-end="url(#arrow)"/>
  <polyline fill="none" stroke="#333" stroke-width="1.5" stroke-linejoin="round" points="134,312 134,352 134,392" marker-end="url(#arrow)"/>
  <polyline fill="none" stroke="#333" stroke-width="1.5" stroke-linejoin="round" points="134,436 134,476 134,516" marker-end="url(#arrow)"/>
  <rect x="84" y="20" width="100" height="44" rx="4" fill="#eef4ff" stroke="#4a72b8"/>
  <text class="lbl" x="134" y="47" text-anchor="middle">inkscape</text>
  <rect x="67" y="144" width="134" height="44" rx="4" fill="#eef4ff" stroke="#4a72b8"/>
  <text class="lbl" x="134" y="171" text-anchor="middle">rsvg-convert</text>
  <rect x="92.5" y="268" width="83" height="44" rx="4" fill="#eef4ff" stroke="#4a72b8"/>
  <text class="lbl" x="134" y="295" text-anchor="middle">magick</text>
  <rect x="20" y="392" width="228" height="44" rx="4" fill="#eef4ff" stroke="#4a72b8"/>
  <text class="lbl" x="134" y="419" text-anchor="middle">Chrome/Edge 无头</text>
  <rect x="55" y="516" width="158" height="60" rx="4" fill="#eef4ff" stroke="#4a72b8"/>
  <text class="lbl" text-anchor="middle">
    <tspan x="134" y="543">写出 SVG 回退</tspan>
    <tspan x="134" y="559">不中断硬失败</tspan>
  </text>
</svg>
