<svg xmlns="http://www.w3.org/2000/svg" width="626" height="388" viewBox="0 0 626 388">
  <defs><marker id="arrow" viewBox="0 0 10 10" refX="9" refY="5" markerWidth="7" markerHeight="7" orient="auto-start-reverse"><path d="M0,0 L10,5 L0,10 z" fill="#333"/></marker></defs>
  <style>text{font-family:'Segoe UI',Arial,sans-serif;font-size:13px;}.lbl{fill:#222;}.elabel{fill:#555;font-size:11px;}</style>
  <polyline fill="none" stroke="#333" stroke-width="1.5" stroke-linejoin="round" points="113.128,100 151.979,140 190.831,180" marker-end="url(#arrow)"/>
  <polyline fill="none" stroke="#333" stroke-width="1.5" stroke-linejoin="round" points="316.128,100 253.479,140 190.831,180" marker-end="url(#arrow)"/>
  <polyline fill="none" stroke="#333" stroke-width="1.5" stroke-linejoin="round" points="527.628,100 359.229,140 190.831,180" marker-end="url(#arrow)"/>
  <polyline fill="none" stroke="#333" stroke-width="1.5" stroke-linejoin="round" points="190.831,224 153.062,264 115.294,304" marker-end="url(#arrow)"/>
  <text class="elabel" x="134.178" y="280" text-anchor="middle">JSON</text>
  <rect x="63.1278" y="40" width="100" height="60" rx="4" fill="#eef4ff" stroke="#4a72b8"/>
  <text class="lbl" text-anchor="middle">
    <tspan x="113.128" y="67">CSV</tspan>
    <tspan x="113.128" y="83">fromCsv</tspan>
  </text>
  <rect x="136.581" y="180" width="108.5" height="44" rx="4" fill="#eef4ff" stroke="#4a72b8"/>
  <text class="lbl" x="190.831" y="207" text-anchor="middle">gt::Table</text>
  <rect x="223.128" y="40" width="186" height="60" rx="4" fill="#eef4ff" stroke="#4a72b8"/>
  <text class="lbl" text-anchor="middle">
    <tspan x="316.128" y="67">SpreadsheetML</tspan>
    <tspan x="316.128" y="83">旧 table XML</tspan>
  </text>
  <rect x="469.128" y="40" width="117" height="60" rx="4" fill="#eef4ff" stroke="#4a72b8"/>
  <text class="lbl" text-anchor="middle">
    <tspan x="527.628" y="67">model JSON</tspan>
    <tspan x="527.628" y="83">fromJson</tspan>
  </text>
  <rect x="56.7936" y="304" width="117" height="44" rx="4" fill="#eef4ff" stroke="#4a72b8"/>
  <text class="lbl" x="115.294" y="331" text-anchor="middle">TableStore</text>
</svg>
