<svg xmlns="http://www.w3.org/2000/svg" width="274" height="492" viewBox="0 0 274 492">
  <defs><marker id="arrow" viewBox="0 0 10 10" refX="9" refY="5" markerWidth="7" markerHeight="7" orient="auto-start-reverse"><path d="M0,0 L10,5 L0,10 z" fill="#333"/></marker></defs>
  <style>text{font-family:'Segoe UI',Arial,sans-serif;font-size:13px;}.lbl{fill:#222;}.elabel{fill:#555;font-size:11px;}</style>
  <polyline fill="none" stroke="#333" stroke-width="1.5" stroke-linejoin="round" points="127,64 127,104 127,144" marker-end="url(#arrow)"/>
  <text class="elabel" text-anchor="middle">
    <tspan x="127" y="113">graph update</tspan>
    <tspan x="127" y="127">insert/delete</tspan>
  </text>
  <polyline fill="none" stroke="#333" stroke-width="1.5" stroke-linejoin="round" points="127,188 127,228 127,268" marker-end="url(#arrow)"/>
  <text class="elabel" x="127" y="244" text-anchor="middle">version stage</text>
  <polyline fill="none" stroke="#333" stroke-width="1.5" stroke-linejoin="round" points="127,312 127,352 127,392" marker-end="url(#arrow)"/>
  <text class="elabel" x="127" y="368" text-anchor="middle">version commit</text>
  <rect x="94" y="20" width="66" height="44" rx="4" fill="#eef4ff" stroke="#4a72b8"/>
  <text class="lbl" x="127" y="47" text-anchor="middle">HEAD</text>
  <rect x="55" y="144" width="144" height="44" rx="4" fill="#eef4ff" stroke="#4a72b8"/>
  <text class="lbl" x="127" y="171" text-anchor="middle">Draft 草稿</text>
  <rect x="55" y="268" width="144" height="44" rx="4" fill="#eef4ff" stroke="#4a72b8"/>
  <text class="lbl" x="127" y="295" text-anchor="middle">Stage 暂存</text>
  <rect x="20" y="392" width="214" height="60" rx="4" fill="#eef4ff" stroke="#4a72b8"/>
  <text class="lbl" text-anchor="middle">
    <tspan x="127" y="419">新 versions/vN</tspan>
    <tspan x="127" y="435">+ latest + HEAD</tspan>
  </text>
</svg>
