<svg xmlns="http://www.w3.org/2000/svg" width="1242" height="848" viewBox="0 0 1242 848">
  <defs><marker id="arrow" viewBox="0 0 10 10" refX="9" refY="5" markerWidth="7" markerHeight="7" orient="auto-start-reverse"><path d="M0,0 L10,5 L0,10 z" fill="#333"/></marker></defs>
  <style>text{font-family:'Segoe UI',Arial,sans-serif;font-size:13px;}.lbl{fill:#222;}.elabel{fill:#555;font-size:11px;}</style>
  <polyline fill="none" stroke="#333" stroke-width="1.5" stroke-linejoin="round" points="278.602,64 307.465,104 336.328,144" marker-end="url(#arrow)"/>
  <polyline fill="none" stroke="#333" stroke-width="1.5" stroke-linejoin="round" points="336.328,188 306.815,228 277.301,268" marker-end="url(#arrow)"/>
  <polyline fill="none" stroke="#333" stroke-width="1.5" stroke-linejoin="round" points="277.301,312 289.611,352 301.921,392" marker-end="url(#arrow)"/>
  <polyline fill="none" stroke="#333" stroke-width="1.5" stroke-linejoin="round" points="366.921,414 428.084,476 503.247,538" marker-end="url(#arrow)"/>
  <polyline fill="none" stroke="#333" stroke-width="1.5" stroke-linejoin="round" points="503.247,538 417.112,600 337.977,662" marker-end="url(#arrow)"/>
  <polyline fill="none" stroke="#333" stroke-width="1.5" stroke-linejoin="round" points="387.328,166 511.341,228 628.354,290" marker-end="url(#arrow)"/>
  <polyline fill="none" stroke="#333" stroke-width="1.5" stroke-linejoin="round" points="686.354,312 677.138,352 667.921,392" marker-end="url(#arrow)"/>
  <polyline fill="none" stroke="#333" stroke-width="1.5" stroke-linejoin="round" points="744.354,290 758.138,352 778.921,414" marker-end="url(#arrow)"/>
  <polyline fill="none" stroke="#333" stroke-width="1.5" stroke-linejoin="round" points="744.354,290 839.138,352 940.921,414" marker-end="url(#arrow)"/>
  <polyline fill="none" stroke="#333" stroke-width="1.5" stroke-linejoin="round" points="744.354,290 919.638,352 1102.92,414" marker-end="url(#arrow)"/>
  <polyline fill="none" stroke="#333" stroke-width="1.5" stroke-linejoin="round" points="356.301,290 384.611,352 426.921,414" marker-end="url(#arrow)"/>
  <polyline fill="none" stroke="#333" stroke-width="1.5" stroke-linejoin="round" points="426.921,414 444.084,476 443.247,538" marker-end="url(#arrow)"/>
  <polyline fill="none" stroke="#333" stroke-width="1.5" stroke-linejoin="round" points="556.921,414 604.084,476 665.247,538" marker-end="url(#arrow)"/>
  <polyline fill="none" stroke="#333" stroke-width="1.5" stroke-linejoin="round" points="556.921,414 702.584,476 827.247,538" marker-end="url(#arrow)"/>
  <polyline fill="none" stroke="#333" stroke-width="1.5" stroke-linejoin="round" points="554.247,560 517.138,600 480.028,640" marker-end="url(#arrow)"/>
  <polyline fill="none" stroke="#333" stroke-width="1.5" stroke-linejoin="round" points="480.028,684 482.514,724 485,764" marker-end="url(#arrow)"/>
  <polyline fill="none" stroke="#333" stroke-width="1.5" stroke-linejoin="round" points="538.028,662 567.014,724 596,786" marker-end="url(#arrow)"/>
  <polyline fill="none" stroke="#333" stroke-width="1.5" stroke-linejoin="round" points="279.977,684 238.488,724 197,764" marker-end="url(#arrow)"/>
  <rect x="199.602" y="20" width="158" height="44" rx="4" fill="#eef4ff" stroke="#4a72b8"/>
  <text class="lbl" x="278.602" y="47" text-anchor="middle">🏴‍☠️ 路飞出航</text>
  <rect x="285.328" y="144" width="102" height="44" rx="4" fill="#eef4ff" stroke="#4a72b8"/>
  <text class="lbl" x="336.328" y="171" text-anchor="middle">🌊 东海篇</text>
  <rect x="198.301" y="268" width="158" height="44" rx="4" fill="#eef4ff" stroke="#4a72b8"/>
  <text class="lbl" x="277.301" y="295" text-anchor="middle">🌊 伟大航路前半段</text>
  <rect x="236.921" y="392" width="130" height="44" rx="4" fill="#eef4ff" stroke="#4a72b8"/>
  <text class="lbl" x="301.921" y="419" text-anchor="middle">⚔️ 顶上战争</text>
  <rect x="503.247" y="516" width="102" height="44" rx="4" fill="#eef4ff" stroke="#4a72b8"/>
  <text class="lbl" x="554.247" y="543" text-anchor="middle">🌊 新世界</text>
  <rect x="221.977" y="640" width="116" height="44" rx="4" fill="#eef4ff" stroke="#4a72b8"/>
  <text class="lbl" x="279.977" y="667" text-anchor="middle">🏆 最终之岛</text>
  <rect x="628.354" y="268" width="116" height="44" rx="4" fill="#eef4ff" stroke="#4a72b8"/>
  <text class="lbl" x="686.354" y="295" text-anchor="middle">👥 召集伙伴</text>
  <rect x="616.921" y="392" width="102" height="44" rx="4" fill="#eef4ff" stroke="#4a72b8"/>
  <text class="lbl" x="667.921" y="419" text-anchor="middle">⚔️ 索隆</text>
  <rect x="778.921" y="392" width="102" height="44" rx="4" fill="#eef4ff" stroke="#4a72b8"/>
  <text class="lbl" x="829.921" y="419" text-anchor="middle">🗺️ 娜美</text>
  <rect x="940.921" y="392" width="102" height="44" rx="4" fill="#eef4ff" stroke="#4a72b8"/>
  <text class="lbl" x="991.921" y="419" text-anchor="middle">🎯 乌索普</text>
  <rect x="1102.92" y="392" width="100" height="44" rx="4" fill="#eef4ff" stroke="#4a72b8"/>
  <text class="lbl" x="1152.92" y="419" text-anchor="middle">🍖 山治</text>
  <rect x="426.921" y="392" width="130" height="44" rx="4" fill="#eef4ff" stroke="#4a72b8"/>
  <text class="lbl" x="491.921" y="419" text-anchor="middle">👊 激战七武海</text>
  <rect x="299.247" y="516" width="144" height="44" rx="4" fill="#eef4ff" stroke="#4a72b8"/>
  <text class="lbl" x="371.247" y="543" text-anchor="middle">🏜️ 克洛克达尔</text>
  <rect x="665.247" y="516" width="102" height="44" rx="4" fill="#eef4ff" stroke="#4a72b8"/>
  <text class="lbl" x="716.247" y="543" text-anchor="middle">⚡ 艾尼路</text>
  <rect x="827.247" y="516" width="172" height="44" rx="4" fill="#eef4ff" stroke="#4a72b8"/>
  <text class="lbl" x="913.247" y="543" text-anchor="middle">🏛️ CP9/司法岛</text>
  <rect x="422.028" y="640" width="116" height="44" rx="4" fill="#eef4ff" stroke="#4a72b8"/>
  <text class="lbl" x="480.028" y="667" text-anchor="middle">👑 挑战四皇</text>
  <rect x="434" y="764" width="102" height="44" rx="4" fill="#eef4ff" stroke="#4a72b8"/>
  <text class="lbl" x="485" y="791" text-anchor="middle">🍰 蛋糕岛</text>
  <rect x="596" y="764" width="116" height="44" rx="4" fill="#eef4ff" stroke="#4a72b8"/>
  <text class="lbl" x="654" y="791" text-anchor="middle">⛩️ 和之国</text>
  <rect x="20" y="764" width="354" height="44" rx="4" fill="#eef4ff" stroke="#4a72b8"/>
  <text class="lbl" x="197" y="791" text-anchor="middle">👑 海贼王!&lt;br&gt;ONE PIECE是真的!</text>
</svg>
