<svg xmlns="http://www.w3.org/2000/svg" width="1184" height="864" viewBox="0 0 1184 864">
  <defs><marker id="arrow" viewBox="0 0 10 10" refX="9" refY="5" markerWidth="7" markerHeight="7" orient="auto-start-reverse"><path d="M0,0 L10,5 L0,10 z" fill="#333"/></marker></defs>
  <style>text{font-family:'Segoe UI',Arial,sans-serif;font-size:13px;}.lbl{fill:#222;}.elabel{fill:#555;font-size:11px;}</style>
  <polyline fill="none" stroke="#333" stroke-width="1.5" stroke-linejoin="round" points="317.005,64 342.025,104 367.046,144" marker-end="url(#arrow)"/>
  <polyline fill="none" stroke="#333" stroke-width="1.5" stroke-linejoin="round" points="367.046,188 318.188,228 269.33,268" marker-end="url(#arrow)"/>
  <polyline fill="none" stroke="#333" stroke-width="1.5" stroke-linejoin="round" points="269.33,312 223.72,352 178.109,392" marker-end="url(#arrow)"/>
  <polyline fill="none" stroke="#333" stroke-width="1.5" stroke-linejoin="round" points="178.109,436 183.767,476 189.425,516" marker-end="url(#arrow)"/>
  <polyline fill="none" stroke="#333" stroke-width="1.5" stroke-linejoin="round" points="189.425,560 164.692,600 139.96,640" marker-end="url(#arrow)"/>
  <polyline fill="none" stroke="#333" stroke-width="1.5" stroke-linejoin="round" points="367.046,188 530.858,228 694.671,268" marker-end="url(#arrow)"/>
  <polyline fill="none" stroke="#333" stroke-width="1.5" stroke-linejoin="round" points="694.671,312 658.03,352 621.389,392" marker-end="url(#arrow)"/>
  <polyline fill="none" stroke="#333" stroke-width="1.5" stroke-linejoin="round" points="694.671,312 739.03,352 783.389,392" marker-end="url(#arrow)"/>
  <polyline fill="none" stroke="#333" stroke-width="1.5" stroke-linejoin="round" points="694.671,312 820.03,352 945.389,392" marker-end="url(#arrow)"/>
  <polyline fill="none" stroke="#333" stroke-width="1.5" stroke-linejoin="round" points="694.671,312 897.53,352 1100.39,392" marker-end="url(#arrow)"/>
  <polyline fill="none" stroke="#333" stroke-width="1.5" stroke-linejoin="round" points="269.33,312 355.535,352 441.74,392" marker-end="url(#arrow)"/>
  <polyline fill="none" stroke="#333" stroke-width="1.5" stroke-linejoin="round" points="441.74,436 414.237,476 386.734,516" marker-end="url(#arrow)"/>
  <polyline fill="none" stroke="#333" stroke-width="1.5" stroke-linejoin="round" points="441.74,436 505.737,476 569.734,516" marker-end="url(#arrow)"/>
  <polyline fill="none" stroke="#333" stroke-width="1.5" stroke-linejoin="round" points="441.74,436 604.237,476 766.734,516" marker-end="url(#arrow)"/>
  <polyline fill="none" stroke="#333" stroke-width="1.5" stroke-linejoin="round" points="189.425,560 262.973,600 336.521,640" marker-end="url(#arrow)"/>
  <polyline fill="none" stroke="#333" stroke-width="1.5" stroke-linejoin="round" points="336.521,684 340.76,724 345,764" marker-end="url(#arrow)"/>
  <polyline fill="none" stroke="#333" stroke-width="1.5" stroke-linejoin="round" points="336.521,684 425.26,724 514,764" marker-end="url(#arrow)"/>
  <polyline fill="none" stroke="#333" stroke-width="1.5" stroke-linejoin="round" points="139.96,684 133.48,724 127,764" marker-end="url(#arrow)"/>
  <rect x="238.005" y="20" width="158" height="44" rx="4" fill="#eef4ff" stroke="#4a72b8"/>
  <text class="lbl" x="317.005" y="47" text-anchor="middle">🏴‍☠️ 路飞出航</text>
  <rect x="316.046" y="144" width="102" height="44" rx="4" fill="#eef4ff" stroke="#4a72b8"/>
  <text class="lbl" x="367.046" y="171" text-anchor="middle">🌊 东海篇</text>
  <rect x="190.33" y="268" width="158" height="44" rx="4" fill="#eef4ff" stroke="#4a72b8"/>
  <text class="lbl" x="269.33" y="295" text-anchor="middle">🌊 伟大航路前半段</text>
  <rect x="113.109" y="392" width="130" height="44" rx="4" fill="#eef4ff" stroke="#4a72b8"/>
  <text class="lbl" x="178.109" y="419" text-anchor="middle">⚔️ 顶上战争</text>
  <rect x="138.425" y="516" width="102" height="44" rx="4" fill="#eef4ff" stroke="#4a72b8"/>
  <text class="lbl" x="189.425" y="543" text-anchor="middle">🌊 新世界</text>
  <rect x="81.9602" y="640" width="116" height="44" rx="4" fill="#eef4ff" stroke="#4a72b8"/>
  <text class="lbl" x="139.96" y="667" text-anchor="middle">🏆 最终之岛</text>
  <rect x="636.671" y="268" width="116" height="44" rx="4" fill="#eef4ff" stroke="#4a72b8"/>
  <text class="lbl" x="694.671" y="295" text-anchor="middle">👥 召集伙伴</text>
  <rect x="570.389" y="392" width="102" height="44" rx="4" fill="#eef4ff" stroke="#4a72b8"/>
  <text class="lbl" x="621.389" y="419" text-anchor="middle">⚔️ 索隆</text>
  <rect x="732.389" y="392" width="102" height="44" rx="4" fill="#eef4ff" stroke="#4a72b8"/>
  <text class="lbl" x="783.389" y="419" text-anchor="middle">🗺️ 娜美</text>
  <rect x="894.389" y="392" width="102" height="44" rx="4" fill="#eef4ff" stroke="#4a72b8"/>
  <text class="lbl" x="945.389" y="419" text-anchor="middle">🎯 乌索普</text>
  <rect x="1056.39" y="392" width="88" height="44" rx="4" fill="#eef4ff" stroke="#4a72b8"/>
  <text class="lbl" x="1100.39" y="419" text-anchor="middle">🍖 山治</text>
  <rect x="376.74" y="392" width="130" height="44" rx="4" fill="#eef4ff" stroke="#4a72b8"/>
  <text class="lbl" x="441.74" y="419" text-anchor="middle">👊 激战七武海</text>
  <rect x="314.734" y="516" width="144" height="44" rx="4" fill="#eef4ff" stroke="#4a72b8"/>
  <text class="lbl" x="386.734" y="543" text-anchor="middle">🏜️ 克洛克达尔</text>
  <rect x="518.734" y="516" width="102" height="44" rx="4" fill="#eef4ff" stroke="#4a72b8"/>
  <text class="lbl" x="569.734" y="543" text-anchor="middle">⚡ 艾尼路</text>
  <rect x="680.734" y="516" width="172" height="44" rx="4" fill="#eef4ff" stroke="#4a72b8"/>
  <text class="lbl" x="766.734" y="543" text-anchor="middle">🏛️ CP9/司法岛</text>
  <rect x="278.521" y="640" width="116" height="44" rx="4" fill="#eef4ff" stroke="#4a72b8"/>
  <text class="lbl" x="336.521" y="667" text-anchor="middle">👑 挑战四皇</text>
  <rect x="294" y="764" width="102" height="44" rx="4" fill="#eef4ff" stroke="#4a72b8"/>
  <text class="lbl" x="345" y="791" text-anchor="middle">🍰 蛋糕岛</text>
  <rect x="456" y="764" width="116" height="44" rx="4" fill="#eef4ff" stroke="#4a72b8"/>
  <text class="lbl" x="514" y="791" text-anchor="middle">⛩️ 和之国</text>
  <rect x="20" y="764" width="214" height="60" rx="4" fill="#eef4ff" stroke="#4a72b8"/>
  <text class="lbl" text-anchor="middle">
    <tspan x="127" y="791">👑 海贼王!</tspan>
    <tspan x="127" y="807">ONE PIECE是真的!</tspan>
  </text>
</svg>
