<svg xmlns="http://www.w3.org/2000/svg" width="290" height="352" viewBox="0 0 290 352">
  <defs><marker id="arrow" viewBox="0 0 10 10" refX="9" refY="5" markerWidth="7" markerHeight="7" orient="auto-start-reverse"><path d="M0,0 L10,5 L0,10 z" fill="#333"/></marker></defs>
  <style>text{font-family:'Segoe UI',Arial,sans-serif;font-size:13px;}.lbl{fill:#222;}.elabel{fill:#555;font-size:11px;}</style>
  <polyline fill="none" stroke="#333" stroke-width="1.5" stroke-linejoin="round" points="125.915,64 100.085,104 74.2545,144" marker-end="url(#arrow)"/>
  <text class="elabel" x="87.1695" y="120" text-anchor="middle">前置</text>
  <polyline fill="none" stroke="#333" stroke-width="1.5" stroke-linejoin="round" points="74.2545,188 65.7523,228 57.25,268" marker-end="url(#arrow)"/>
  <text class="elabel" x="61.5011" y="244" text-anchor="middle">派生</text>
  <polyline fill="none" stroke="#333" stroke-width="1.5" stroke-linejoin="round" points="125.915,64 169.46,104 213.005,144" marker-end="url(#arrow)"/>
  <text class="elabel" x="191.232" y="120" text-anchor="middle">互斥</text>
  <rect x="88.6646" y="20" width="74.5" height="44" rx="4" fill="#eef4ff" stroke="#4a72b8"/>
  <text class="lbl" x="125.915" y="47" text-anchor="middle">slash</text>
  <rect x="32.7545" y="144" width="83" height="44" rx="4" fill="#eef4ff" stroke="#4a72b8"/>
  <text class="lbl" x="74.2545" y="171" text-anchor="middle">thrust</text>
  <rect x="20" y="268" width="74.5" height="44" rx="4" fill="#eef4ff" stroke="#4a72b8"/>
  <text class="lbl" x="57.25" y="295" text-anchor="middle">combo</text>
  <rect x="175.755" y="144" width="74.5" height="44" rx="4" fill="#eef4ff" stroke="#4a72b8"/>
  <text class="lbl" x="213.005" y="171" text-anchor="middle">guard</text>
</svg>
